<?xml version="1.0" encoding="UTF-8" standalone="no"?>
<!-- Created with Inkscape (http://www.inkscape.org/) -->

<svg
   version="1.1"
   id="svg2"
   width="2000"
   height="2000"
   viewBox="0 0 2000 2000"
   sodipodi:docname="116840251_eps_normal_none.eps"
   xmlns:inkscape="http://www.inkscape.org/namespaces/inkscape"
   xmlns:sodipodi="http://sodipodi.sourceforge.net/DTD/sodipodi-0.dtd"
   xmlns="http://www.w3.org/2000/svg"
   xmlns:svg="http://www.w3.org/2000/svg">
  <defs
     id="defs6" />
  <sodipodi:namedview
     id="namedview4"
     pagecolor="#ffffff"
     bordercolor="#000000"
     borderopacity="0.25"
     inkscape:showpageshadow="2"
     inkscape:pageopacity="0.0"
     inkscape:pagecheckerboard="0"
     inkscape:deskcolor="#d1d1d1" />
  <g
     id="g8"
     inkscape:groupmode="layer"
     inkscape:label="ink_ext_XXXXXX"
     transform="matrix(1.3333333,0,0,-1.3333333,0,2000)">
    <g
       id="g10"
       transform="scale(0.1)">
      <path
         d="M 15000,0 H 0 V 15000 H 15000 V 0"
         style="fill:#f1eeec;fill-opacity:1;fill-rule:nonzero;stroke:none"
         id="path12" />
      <path
         d="m 332.395,7414.57 c 112.156,-168.03 279.851,-274.94 450.941,-374.41 85.176,-51.3 175.68,-93.96 268.374,-127.25 42.26,-16.51 91.13,-4.91 138.98,-4.61 -27.76,36.18 -45.15,81.46 -78.96,105.87 -204.097,148.41 -409.656,290.58 -613.746,438.98 -12.957,7.99 -17.925,28.93 -25.562,45.55 15.891,4.51 31.312,14.07 45.738,12.34 188.301,1.94 378.445,-16.32 562.51,9.68 84.68,9.79 124.47,-24.26 179.42,-56.93 61.19,-34.14 122.39,-68.27 194.42,-98.36 65.64,62.04 129.54,109.66 175.71,172.97 17.16,23.98 8.03,90.38 -13.02,120.04 -55.98,77.4 -158.79,109.77 -229.67,60.5 -116.7,-83.01 -238.13,-80.88 -368.74,-89.77 -325.704,-25.72 -650.204,-53.37 -976.7822,8.44 -13.918,2.62 -27.9453,4.76 -42.0078,6.77 v -110.2 c 117.301,-14.56 247.207,9.78 332.395,-119.61"
         style="fill:#efd5cb;fill-opacity:1;fill-rule:nonzero;stroke:none"
         id="path14" />
      <path
         d="m 44.5664,9185.19 c 6.1953,3.61 38.9883,-31.24 48.3359,-51.54 73.8827,-173.66 144.5747,-347.54 218.4647,-521.21 46.938,-104.67 8.981,-189.11 -65.023,-263 -39.149,-41.1 -81.489,-82.41 -129.364,-112.82 C 78.418,8211.37 39.3047,8186.61 0,8162.01 v -307.43 c 213.336,-16.97 422.148,36.19 633.16,55.24 35.219,2.27 70.692,25.45 106.789,39.04 -33.664,23.54 -65.375,66.51 -102.504,68.94 -171.543,17.87 -345.465,22.73 -519.8,34 -19.4184,1.96 -40.3286,2.22 -59.7505,4.18 11.7774,16.83 23.1407,40.07 40.0235,52.41 89.137,63.62 181.883,121.04 271.012,184.66 127.402,93.41 282.734,77.71 425.156,112.61 359.154,89.06 725.444,117.5 1095.284,115.63 48.23,-0.11 96.72,20.7 142.01,41.3 12.39,7.23 14.62,47.57 13.17,69.98 -2.11,7.9 -28.76,22.25 -41.57,21.43 -357.35,-42.33 -723.62,28.9 -1074.933,-82.17 -25.199,-8.06 -56.133,-2.01 -83.453,-2.17 17.769,23.66 33.828,48.8 53.297,70.96 5.992,6.81 22.207,4.64 29.902,9.96 169.897,107.4 339.997,211.61 504.787,323.5 78.65,51.69 148.93,83.55 248.13,65.84 115.42,-19.89 147.64,78.63 165.98,168.23 23.3,112.42 -28.76,221.59 -112.56,249.94 -97.04,33.93 -196.65,-41.62 -214.63,-161.72 -9.29,-55.26 -9.66,-124.41 -42.81,-158.69 -60.11,-64.97 -139.18,-110.25 -213.13,-160.03 C 1128.27,8882.12 991.055,8791.3 855.758,8695.77 745.039,8617.9 637.73,8537.04 526.801,8462.37 c -30.778,-21.28 -72.399,-23.96 -107.207,-32.63 14.156,29.84 28.097,62.89 43.746,94.44 4.078,11.52 14.976,17.05 20.758,27.06 104.265,153.01 203.629,307.3 216.855,501.05 4.652,77.47 50.613,112.58 122.598,142.94 46.996,19.11 98.324,70.64 114.437,119.9 23.864,78.7 -14.808,154.97 -95.008,177.13 -60.574,16.99 -138.914,10.33 -198.503,-12.8 -32.895,-13.37 -69.149,-99.3 -54.489,-127.29 94.399,-167.52 -20.3,-308.34 -47.523,-459.59 -11.879,-65.07 -46.582,-125.17 -73.18,-186.36 -4.082,-11.52 -21.586,-14.26 -32.277,-22.98 -2.32,11.1 -2.942,20.71 -3.766,33.51 -9.804,201.91 -112.972,356.01 -252.242,496.53 -25.766,25.66 -22.875,80.5 -31.961,121.71 -10.117,57.22 -3.144,123.57 -33.144,165.04 C 92.7227,9532.14 48.3438,9544.89 0,9541.51 v -381.42 c 14.082,9.43 29.8984,17.66 44.5664,25.1"
         style="fill:#efd5cb;fill-opacity:1;fill-rule:nonzero;stroke:none"
         id="path16" />
      <path
         d="m 240.352,6971.44 c 61.347,45.75 57.89,124.29 -5.625,161.99 -63.305,34.5 -142.4692,40.64 -212.852,60.22 -7.3047,1.93 -14.58594,3.69 -21.875,5.49 v -275.68 c 68.9063,-35.85 158.59,-13.38 240.352,47.98"
         style="fill:#efd5cb;fill-opacity:1;fill-rule:nonzero;stroke:none"
         id="path18" />
      <path
         d="m 293.328,11605.2 c -12.801,-10.3 -30.535,-16.4 -45.109,-23.8 -7.781,19.1 -21.739,39.2 -20.449,59.1 0.582,62.5 2.535,126.7 13.824,188.6 18.527,100.6 2.754,210.4 63.152,302.5 81.914,124.5 160.535,251.8 242.449,376.3 5.246,9.6 12.27,16.3 19.157,24.5 2.578,-12 9.554,-22 10.496,-32.6 16.8,-138.6 27.554,-277.8 54.8,-414 10.317,-47.8 19.696,-85 -11.73,-125.9 -70,-86.9 -138.359,-175.1 -223.34,-264.9 -33.867,-30.4 -67.734,-60.8 -103.25,-89.8 z m 17.145,1134.6 c -67.735,-9 -138.184,-4.6 -206.856,-3 -3.019,-0.3 -11.4647,26.4 -9.9568,26.5 129.4768,86 260.5858,170.7 427.1328,199.1 89.598,20.1 177.562,41.6 267.168,61.7 8.93,2.3 19.91,-1.3 29.109,-2 -3.867,-8 -7.734,-15.9 -13.246,-22.5 -53.293,-51.9 -102.89,-111.2 -164.539,-154.7 -96.047,-67.8 -214.496,-88.9 -328.812,-105.1 z m 568.066,258.8 c 2.441,-10.5 7.777,-19.2 7.066,-28.4 -8.441,-76.9 -26.218,-151.5 -24.085,-227.5 4.535,-206.7 -23.461,-407.2 -131.379,-599.4 -6.489,-12.8 -11.465,-25.4 -17.953,-38.2 -6.844,8.6 -15.208,17 -17.645,27.4 -6.137,17.7 -12.402,37 -14.008,55.1 -10.668,120.9 -25.867,241.4 -30.492,362.8 -0.398,56.4 9.113,121.2 36.715,170.8 46.933,89.4 109.781,171.1 167.828,255.4 5.375,8.1 17.062,13.7 23.953,22 z m 312.531,1635.8 c -37.16,-79.5 -80.63,-156.4 -124.09,-233.3 -5.11,-11.2 -18.31,-16.9 -28.23,-25.4 -2.84,15 -10.49,32.6 -5.38,43.7 24.89,63.1 56.1,123.8 80.85,188.4 7.33,20.4 7.02,58.5 -6.27,71 -77.42,66.3 -158.848,126.1 -239.032,189.1 -29.469,23.3 -60.578,47.9 -90.184,72.7 37.071,-5.8 72.758,-13.3 118.051,-26.1 36.891,-21.1 78.051,-38.8 110.935,-66.4 54.54,-48.4 103.43,-102 153.97,-156.9 13.55,-15.6 34.35,-44.2 29.38,-56.8 z m -198.632,-10 c -47.293,-16.3 -88.18,-53.4 -136.985,-69.9 -29.687,-8.7 -72.269,-9.4 -99.422,4.9 -145.254,75.5 -287.886,155.8 -430.648,237.7 -3.156,1.2 -0.621,24.3 5.16,27.8 34.668,21.4 69.73,38.2 119.777,57.8 50.051,19.7 115.828,68.1 146.278,51 141.961,-72.8 273.168,-161.7 405.752,-249 16.18,-10.7 40.27,-42.1 -9.912,-60.3 z m -35.465,-219.3 c -37.868,-88.7 -78.891,-176.1 -170.762,-222.2 -75.914,-37.2 -155.648,-65.5 -233.609,-96.8 -10.313,-4 -24.317,-0.6 -36.532,-0.2 2.223,9.4 2.664,21.6 6.395,31.1 40.047,81.2 78.719,160.7 125.648,250.1 77.43,37.3 156.364,74.8 233.785,112.1 36.582,16.9 73.43,30.8 110.145,46.2 -11.777,-39.1 -20.27,-81 -35.07,-120.3 z m -553.844,-333.7 c -99.34,-65.1 -214.234,-40.2 -322.2345,-58.9 -1.2031,13.6 -8.7109,29.7 -3.4687,39.3 82.0472,174.8 272.2772,176.3 416.1482,254.5 2.891,1.8 26.309,-22 23.555,-25.3 -28.176,-60.4 -59.645,-118 -96.352,-185.2 -5.382,-8.1 -10.496,-19.2 -17.648,-24.4 z M 1667.5,13429.1 c 62.01,74 62.01,74 95.3,-9.9 7.64,-17.5 22.71,-33 25.69,-49.5 8.53,-44.9 31.87,-102.2 14.89,-134.2 -55.2,-99.3 -90.36,-201.4 -92.45,-315.8 -0.17,-15.2 -17.11,-30.4 -26.49,-45 -10.4,14.3 -29.86,27.9 -31.07,41.5 -16.22,149.3 -27.77,297.5 -34.09,455.4 16.53,19.7 31.55,39.3 48.22,57.5 z m -43.42,147 c 9.46,48 22.09,94.8 40.09,149.7 19.2,-10.5 48.84,-18.5 54.71,-33.3 17.29,-57.8 3.69,-110.8 -42.84,-153 -16.94,-15.2 -35.39,-30.5 -53.96,-44.3 0.76,25.9 -1.78,54.6 2,80.9 z m 190.58,239.1 c 9.47,-3.7 17.56,-9.1 40.62,-11.6 94.68,-89.1 190.86,-178.1 284.02,-267.4 13.29,-12.5 16.53,-32 24.18,-49.6 -17.43,7.6 -38.98,10.3 -53.65,21.1 -92.54,65 -182.32,133.2 -273.48,199.8 -21.11,14.9 -50.89,24.4 -66.22,42.9 -20.67,27.1 -32.94,62.5 -47.83,93.2 31.29,-9.4 62.58,-18.8 92.36,-28.4 z m 459.63,-548.8 c 8.49,-9.9 -0.22,-32 -0.27,-48.8 -14.26,6.4 -31.42,11 -44.44,20.5 -86.5,65.5 -167.48,137.5 -292.95,161.5 -34.98,16.7 -86.05,25.9 -99.16,53.7 -24.05,48.1 -24.85,108.9 -34.32,164.4 -0.8,9.1 2.93,18.6 3.65,27.8 8.08,-5.4 14.66,-10.9 22.76,-16.3 105.55,-74.4 213.87,-145.6 316.81,-224.8 49.07,-38.4 88.63,-89.7 127.92,-138 z m 3.6,-351.5 c 0.18,-36.5 -2.98,-35.3 -30.67,-14.9 -80.18,63 -145.6,148.6 -252.94,174.2 -17.16,4.6 -32.05,35.2 -41.47,55.7 -27.02,64.6 -52.67,130.9 -71.3,203.9 49.96,-13.9 103.65,-18.3 146.85,-41.9 79.97,-43.2 153.04,-94.6 226.11,-146 17.82,-12.2 35.46,-39.5 35.69,-59.3 0.53,-57.8 -12.8,-113.9 -12.27,-171.7 z m 60.14,-526.2 c 0.53,-6 -3.46,-12.5 -5.82,-20.3 -5.07,5.7 -12.89,8 -16.44,13.8 -10.4,14.3 -19.16,27.2 -26.54,41.8 -86.36,167.5 -171.34,336.7 -259.04,519.3 -5.46,10.2 -10.93,20.4 -16.4,30.6 7.56,0.6 19.25,6.2 24.05,3.6 25.64,-14.5 49.91,-30.6 71.42,-50.1 54.8,-51.5 131.74,-94.9 154.1,-158.4 42.54,-119.6 51.25,-252.9 74.67,-380.3 z m 29.52,-161.8 c -18.4,1.4 -40.67,-5.2 -52.05,3 -48.93,36.8 -90.85,80.3 -139.65,115.6 -111.61,73.9 -113.08,194.1 -133.78,308 -2.45,10.4 9.95,25.2 14.93,37.9 10.13,-11.3 21.64,-21 28.89,-34 23.91,-46.7 43.69,-98.2 73.51,-142.8 63.21,-94.9 132.32,-187.8 208.15,-287.7 z m -378.38,266.6 c -11.38,8.1 -24,13.1 -34,22.9 -38.62,40.7 -71.47,85 -114.23,120.9 -54.53,48.5 -93.96,98.3 -89.87,190 22.22,93.3 44.44,186.7 66.8,278.5 4.71,15.7 15.87,27.3 23.74,41.7 11.24,-6.6 33.19,-13.8 33.86,-21.4 17.96,-117.2 113.03,-210.8 95.65,-341.8 -10.93,-83.2 11.92,-169.5 19.39,-254.2 1.06,-12 -0.9,-24.4 -1.34,-36.6 z M 765.121,12023 c 74.18,108.6 133.563,229.6 183.606,352.8 30.265,71.2 41.07,155.9 41.687,235.1 1.109,108.3 -23.871,218.8 -22.758,327 -0.488,74.6 12.223,154.9 43.024,220 150.71,328.6 309.38,653.3 465.03,977.7 5.11,11.1 8.85,20.6 14.09,30.2 8.35,-8.4 19.73,-16.6 23.69,-26.9 28.49,-81.2 58.36,-160.8 80.81,-242.6 9.24,-35.7 8.84,-83 -4.85,-117.7 -83.6,-191.7 -111.73,-390.6 -82.75,-598.2 36.54,-258.7 124.63,-497.7 320.16,-676.9 137.56,-126.4 298.68,-226.4 448.77,-339.6 63.61,-47.7 262.29,-60.8 245.66,-22.5 -42.58,102.9 -77.74,207.9 -111.39,313 -20.71,62.2 -40.04,126 -47.16,189.3 -5.86,66.5 4.89,134.5 6.44,203.1 5.29,181.7 40.81,366.1 -44.58,539.8 -85.39,173.7 -196.5,328.3 -361.98,443.2 -90.62,60.5 -178.09,119.8 -280.72,161 -41.16,17.7 -62.4,85.9 -90.99,133.6 -80.67,137.6 -12.17,276.1 -0.13,415.8 12.32,153 21.5,307.2 29.3,459.8 h -189.51 c -17.23,-30 -36.4,-59 -58.56,-86.2 -8.27,-9.9 -19.7,-18.5 -23.29,-29.5 -52.67,-128 -144.41,-123.9 -229.03,-27.8 -66.44,74 -143.944,116.8 -229.831,143.5 H 418.945 C 292.973,14955.9 179.848,14877.4 73.8633,14782.5 49.1055,14760.5 24.625,14738 0,14715.8 v -135.9 c 51.3242,37.7 101.688,76.3 153.16,115.2 48.574,36.2 98.797,71.1 161.469,34 113.828,-64.6 227.926,-132.2 340.508,-199.9 17.824,-12.1 33.023,-29.1 50.976,-42.7 -18.972,-9.3 -37.953,-18.6 -56.933,-27.9 -27.778,-13.1 -55.559,-26.2 -83.336,-39.3 -100.805,-48.5 -203.117,-97.1 -331.082,-27.7 -78.297,43.2 -155.5628,89 -234.762,130 v -91.6 c 28.6914,-17.3 57.6602,-36.7 91.8633,-58.6 36.3597,-15.1 74.0937,-28.5 110.4497,-43.6 22.226,-10.2 43.074,-22.1 63.785,-32.4 -23.508,-9.7 -48.535,-19.6 -72.043,-29.2 -13.203,-5.8 -24.758,-12.9 -37.961,-18.6 C 104.195,14226.7 52.3477,14205.2 0,14189.4 v -82.6 c 6.30859,1.2 12.6211,2.5 18.9297,3.8 -1.9531,-12.4 -0.3516,-30.5 -7.3789,-37.2 C 7.67188,14070 3.82422,14066.5 0,14062.8 v -149.4 c 74.4961,6.4 148.98,12.9 223.391,20.3 187.117,19.6 363.48,74.7 538.379,146.5 154.269,63.9 273.61,161.2 372.28,285.7 45.2,57.2 81.78,126 106.27,193.6 28.35,75.6 66,132.2 126.58,187.8 59.07,55.5 91.16,140.6 135.02,213 6.62,11.2 16.41,21.2 24.54,32.6 7.25,-13.1 22.04,-25.5 19.96,-36.3 -5.3,-78.1 -11.96,-157.9 -23.43,-235.1 -20,-135.8 -27.51,-275 -67.82,-405 -48.75,-155.1 -122.35,-304.7 -192.93,-454.1 -104.01,-219.3 -214.32,-436.2 -321.478,-654.3 -32.176,-66.8 -85.559,-100.4 -159.473,-108.5 -218.723,-23.8 -438.418,-53.9 -616.383,-194.5 C 106.605,12859.2 51.3906,12808 0,12753.3 v -113.6 c 31.8047,20.5 71.8203,20.3 110.559,18.5 154.359,-6.2 306.675,-6.5 449.57,65.5 15.957,9.1 37.781,3.4 55.91,5 -7.726,-15.9 -13.684,-34.7 -24.574,-49.4 -53.34,-68.7 -105.16,-137.2 -158.496,-205.9 -35.559,-45.8 -70.27,-83.9 -136.891,-88.2 -60.449,-5.3 -120.273,-35 -182.23,-40.5 C 76.1133,12342 38.2813,12342 0,12343 v -74.8 c 67.9648,5.9 136.078,12.2 204.203,19 33.117,4.5 65.563,16.5 98.41,23.9 10.575,1 21.688,-4.1 32.664,-7.7 -5.242,-9.6 -8.711,-22.1 -15.597,-30.3 -26.18,-31.3 -55.649,-59.8 -80.184,-92.4 C 163.711,12077.4 111.93,11955.2 0,11867.4 v -172.5 c 51.6836,76.5 104.199,153.9 156.965,230.3 5.375,8.1 15.555,13.5 24.09,20.4 2.308,-9 7.91,-20.7 5.55,-28.5 -40.707,-125.4 -40.218,-251.8 -28.878,-380.2 1.73,-19.7 -20.047,-49 -38.625,-62.8 C 80.2109,11443.9 40.4297,11415.8 0,11388.5 V 11274 c 157.371,114.7 315.613,229.9 454.938,363.7 118,112.5 217.117,249.2 310.183,385.3"
         style="fill:#7e967b;fill-opacity:1;fill-rule:nonzero;stroke:none"
         id="path20" />
      <path
         d="m 2758.03,14722.4 c 31.91,-33.8 52.53,-77.6 85.51,-123.4 0.36,-21.3 0.84,-44.1 1.21,-65.4 -16.59,15.3 -33.29,32.1 -48.5,49 -27.24,32.6 -56,65.1 -83.25,97.7 -10.4,14.3 -19.42,30.3 -29.82,44.6 25.82,0.8 63.07,10.2 74.85,-2.5 z m 162.01,-386.3 c 10.27,-12.8 6.22,-36 7.82,-54.1 -14.13,4.9 -31.29,9.4 -44.18,17.4 -59.91,40.4 -122.72,79.1 -178.49,124.4 -42.63,34.3 -85.65,73.1 -112.59,119.5 -28.58,47.7 -41.34,106 -55.21,159.6 -6.79,25.3 -0.26,54.8 8.58,75.4 26,-35.8 50.76,-74.7 79.52,-107.2 66.14,-76.4 133.65,-151.2 201.17,-225.9 32.04,-35.3 65.6,-70.4 93.38,-109.1 z m -201.92,510.7 c 33.91,-56.4 -17.43,-44.2 -28.54,-39.1 -63.65,31 -124.81,68.2 -194.06,110.8 -23.47,27.4 -46.5,54.5 -69.53,81.5 h -99.44 c 110.02,-122.5 135.2,-284.9 184.93,-434.9 2.31,-9 0.09,-18.3 -0.48,-29 -9.6,5.2 -19.07,9 -27.29,15.9 -74.19,46.7 -151.12,90.2 -219.79,143.5 -32.76,26.1 -65.34,67.4 -74.98,107.6 -14.9,64.9 -24.31,131 -32.49,196.9 h -55.6 c 4.5,-30.9 8.91,-61.7 13.37,-92.3 2.84,-15 -9.43,-31.3 -15.78,-45.5 -8.49,9.9 -16.98,19.8 -24.09,31.3 -17.95,31.6 -34.77,63.8 -53.47,106.5 h -101.52 c 7.05,-14.1 13.89,-28.2 21.38,-42.1 69.3,-129.4 158.42,-241.9 264.06,-334.6 94.41,-86.1 218.15,-142.2 327.84,-211.7 138.77,-88.3 278.91,-174.9 416.29,-264.8 77.6,-51 115.16,-131.5 151.34,-213.6 7.51,-16 14.18,-39.8 28.45,-46.2 20.71,-10.3 46.53,-9.6 70.85,-9 3.02,0.3 12.44,31.6 6.84,43.3 -22.22,62 -41.56,125.8 -73.96,182.3 -100.5,172.4 -177.21,351.4 -233.7,542.9 -37.48,120.2 -86.57,237 -136.95,353.5 h -109.3 c 19.64,-52.5 37.06,-105.8 65.62,-153.2"
         style="fill:#7e967b;fill-opacity:1;fill-rule:nonzero;stroke:none"
         id="path22" />
      <path
         d="m 9391.11,14965.6 c 35.18,-2.7 73.61,15.1 111.27,23.4 -3.63,3.4 -7.19,7.1 -10.72,11 h -728.45 c 206.61,-45.3 418.58,-23.2 627.9,-34.4"
         style="fill:#efd5cb;fill-opacity:1;fill-rule:nonzero;stroke:none"
         id="path24" />
      <path
         d="m 6444.95,14116.1 c -124.17,-64.1 -231.68,-161.8 -346.3,-247.7 -13.81,-11.8 -17.31,-35.6 -26.7,-52.6 25.34,-5.2 60.72,-25.7 76,-15.7 179.14,108.1 356.81,218 531.53,331.2 166.1,106 321.89,224 489.2,325 165.59,99.5 317.58,68.1 391.31,-77.7 109.74,-219.5 327.58,-293.1 520.5,-396.9 20.15,-9.6 57.12,10 88.13,15.5 -12.74,22 -22.04,46.8 -39.96,64.4 -89.11,93.9 -176.48,189.3 -269.04,280.4 -58.18,57.7 -125,108 -186.63,162.8 -19.4,19.2 -36.82,43.1 -54.48,63.8 29.28,4.2 64.26,19.1 91.07,12.1 213.94,-62 431.32,-121 640.79,-198.8 84.58,-29.2 177.75,-72 202.58,-185 37.02,-162.2 178.97,-178.3 315.21,-103.8 67.27,36.5 75.07,114.7 17.6,161.1 -57.72,43.2 -135.19,60.6 -202.06,90 -42.03,17.9 -84.32,32.5 -124.37,55 -46.46,22.9 -88.45,61.7 -137.13,76.8 -127.39,37.4 -257.25,63.8 -386.6,96.6 -20.41,6.5 -40.31,19.3 -60.46,28.9 10.6,12.1 18.52,30.8 29.84,31.5 124.4,8.2 197.72,100.9 284.14,170.6 9.79,-6.2 20.05,-11.5 31.4,-14.7 121.16,-33.8 247.02,-55.6 366.75,-97.4 118.81,-39.8 264.97,-23 335.36,-173 86.97,-182.3 237.66,-312.1 392.77,-435.1 76.96,-62.9 160.44,-118.1 247.42,-164.3 39.47,-22.3 89.48,-17.8 136.9,-24.4 -22.31,39.8 -33.04,87.1 -63.02,116.1 -180.77,176 -363.9,346.1 -544.67,522.2 -11.68,9.8 -13.61,31.2 -18.79,48.7 16.37,2.2 33.01,9.5 47.03,5.7 186.64,-25 372.23,-70.3 558.12,-70.8 85.21,-2.5 119.73,-41.9 169.43,-82 55.68,-42.6 111.38,-85.1 178.38,-125.2 73.8,52 143.9,90 198.6,146.1 20.4,21.3 20.9,88.3 4.3,120.6 -44.3,84.7 -141.5,131.4 -218.7,92.8 -127.33,-65.5 -247.22,-46 -377.75,-36.2 -326.03,21.1 -651.16,40.2 -965.54,148.1 -125.19,42.8 -261.14,58.1 -393.77,78.7 55.57,34.6 99.15,88.3 152.16,128.1 5.77,3.9 12.14,8.2 18.69,12.4 h -153.63 c -4.6,-6.5 -9.51,-12.7 -15.18,-18.2 -34.52,-29.5 -77.87,-48.6 -118.53,-74.3 -147.57,-75.2 -273.72,-144.1 -409.66,-194.4 -91.38,-36.3 -195.49,-50.5 -293.47,-68.5 -17.97,-3.4 -39.09,14.3 -56.05,23.7 15.53,13.3 28.37,33.2 44.87,38.3 233.09,64.1 443.22,176.2 651.33,293.4 h -236.18 c -31.63,-20 -63.17,-40.3 -94.23,-61.3 -61.12,-40.3 -116.35,-87.4 -177.46,-127.6 -17.01,-11.5 -42.59,-9.5 -63.76,-12.6 2.98,17.4 -1.63,40.3 7.25,50.9 40.87,50.5 82.48,100.3 125.16,150.6 h -130.43 c -116.12,-140.9 -241.55,-273.6 -367.37,-405.9 -14.07,-15 -46.05,-12.4 -70.67,-18.5 4.72,18.9 7.97,39.6 15.89,58.2 42.73,123.1 89.5,243.6 129.56,366.2 h -123.26 c -128.18,-400 -383.94,-689.9 -763.42,-883.9"
         style="fill:#efd5cb;fill-opacity:1;fill-rule:nonzero;stroke:none"
         id="path26" />
      <path
         d="m 6443.97,10808.9 c 4,2.7 9.85,4.3 13.84,7 -3.19,-22.9 -8.25,-44.8 -11.45,-67.6 -45.11,-24.9 -84.49,-41.9 -125.74,-57.9 -8.79,-2.4 -21.03,2.1 -32.07,2.3 4.13,13.7 5.2,32.8 14.64,38.6 45.78,28.1 92.75,52 140.78,77.6 z m 432.46,138.3 c 37.52,0.8 77.03,-5.7 115.35,-7.8 -21.82,-29.6 -39.13,-64.2 -67.74,-86.1 -32.2,-26.1 -71.85,-47.9 -112.84,-59.1 -84.89,-23.1 -173.64,-37.9 -259.73,-56.6 -9.71,24.1 -17.55,47.1 -8.24,59.1 79.59,117.6 200.41,147.4 333.2,150.5 z m 404.08,-34.5 c 1.86,-1 2.25,-19.8 -2,-27.3 -49.12,-79.4 -130.41,-81.1 -209.45,-85.3 -34.59,0 -53.08,4.3 -73.04,8.3 9.98,15.3 18.1,31.7 28.88,44.1 25.15,28.9 48.84,74.6 77.85,77.8 58.01,6.4 119.08,-10 177.76,-17.6 z m 157.53,-18.4 c 67.06,-3.7 132.92,-20.4 199.44,-33.7 11.85,-3 23.82,-12.3 35.39,-20.2 -11.71,-3.2 -24.08,-9.7 -37.66,-11.8 -23.15,-1.6 -46.69,-1.8 -69.85,-3.4 -77.17,-5.3 -141.17,-7 -203.71,-8.3 -12.5,-0.3 -25.81,2.4 -38.72,3.6 5.99,12.6 8.53,32.2 18.37,36.4 30.21,16.1 64.67,39.7 96.74,37.4 z m 72.89,-140.5 c -0.93,-8.1 -6.53,-22.2 -13.85,-24.2 -18.22,-8.1 -39.11,-12.2 -58.14,-17.4 -77.17,-5.3 -141.17,-7.1 -204.51,-5.4 -9.58,0.5 -19.15,18.3 -29.66,28 9.84,4.3 19.56,14.8 30.21,16.1 84.48,7.3 169.38,13.2 254.66,17.5 7.72,0.6 21.55,-9.8 21.29,-14.6 z m -624.85,-142 c -54.15,2.5 -107.23,41.5 -160.72,64.7 -5.18,1.7 -9.04,10.1 -12.5,17 12.37,6.6 23.55,17.5 36.06,17.7 97,7.6 194.8,12.2 292.19,18.3 50.42,-17.7 91.14,-28.6 131.18,-42.8 8.92,-3.9 18.76,-16.9 19.29,-24.6 0.53,-7.8 -11.71,-20.5 -19.43,-21.1 -95.8,-11.9 -191.07,-31.6 -286.07,-29.2 z m -165.66,-32.6 c -96.99,9.8 -192.52,19.9 -289.92,31.1 -9.58,0.5 -19.02,12.1 -27.27,19.3 9.85,4.2 20.76,10.4 32.47,13.6 45.11,7.5 90.61,13.6 135.72,21.2 58.8,-13.8 104.04,-29.8 148.21,-47.6 7.45,-4.3 12.9,-18.5 19.69,-26.1 -6.52,-4.9 -12.64,-11.3 -18.9,-11.5 z m 875.33,-1019.3 c 23.95,-1.34 41.78,-9.06 41.78,-9.06 -19.97,-47.9 -37.68,-98.32 -67.35,-139.43 -19.7,-25.81 -56.56,-40.57 -89.02,-54.13 -29.54,-12.77 -62.54,-18.62 -93.28,-27 -15.7,-5.85 -31,-13.17 -46.7,-19.02 8.38,21.15 11.45,50.29 26.62,63.86 73.72,64.12 151.97,123.19 227.95,184.78 z m 208.9,41.21 c 84.23,2.51 155.27,1.43 225.26,-1.51 11.45,-1.59 22.22,-6.52 34.06,-9.58 -8.25,-10.11 -15.03,-19.82 -23.29,-29.93 -13.97,-17.96 -36.06,-34.99 -42.98,-55.74 -35.68,-105.64 -116.71,-119.87 -211.05,-114.13 -32.06,2.27 -65.72,-6.91 -99.52,-9.83 -12.11,-1.73 -23.56,-0.13 -34.6,0.01 3.07,11.84 4.67,23.28 8.12,33.66 13.31,31.93 35.14,61.46 40.34,94.32 9.32,63.87 49.37,84.22 103.66,92.73 z m 499.61,-61.96 c 75.17,-21.96 154.21,-35.01 231.5,-53.26 15.17,-3.73 31.13,-10.38 47.77,-13.71 -14.38,-16.5 -27.42,-43.64 -42.46,-46.16 -80.09,-6.11 -159.93,-7.43 -240.83,-10.61 -11.04,0.14 -23.15,-1.59 -35.25,-3.32 -72.78,-4.11 -132.39,-4.63 -190.54,-4.76 -11.04,0.14 -23.15,-1.59 -35.66,-1.85 4.13,13.7 4.93,28.07 10.92,40.71 74.67,124.13 110.86,135.56 254.55,92.96 z m 386.5,-91.21 c 144.5,-10.93 287.67,-28.52 430.43,-44.64 6.25,0.13 13.83,-10.38 19.82,-15.04 -8.78,-2.39 -17.56,-4.78 -25.28,-5.32 -136.91,0.42 -273.43,-0.62 -410.34,-0.2 -37.78,11.72 -68.12,19.18 -96.59,25.57 27.67,13.83 56.55,40.57 81.96,39.63 z m 276.87,-127.37 c 14.37,-0.8 27.41,-8.26 41.11,-12.39 -9.72,-10.5 -19.3,-27.27 -29.54,-30.06 -136.79,-23.13 -271.72,-99.21 -409.54,-3.12 -20.89,13.17 -42.84,24.48 -65.2,37.26 31.54,5.45 63.34,15.69 94.61,16.35 23.16,1.6 45.77,-6.39 69.06,-11.05 106.04,-2.55 202.77,0.23 299.5,3.01 z m -682.99,-124.83 c -87.68,39 -180.27,67.23 -269.28,99.57 -10.78,4.93 -19.42,13.58 -27.67,20.76 11.3,4.66 22.89,14.11 32.47,13.57 134.91,-10.4 278.22,34.94 403.4,-55.15 33.67,-25.42 79.16,-36.6 118.55,-54.17 14.5,-7.06 27.94,-15.98 40.98,-23.43 -16.37,-9.18 -31.67,-16.49 -48.04,-25.67 -99.53,-44.42 -173.51,-9.55 -250.41,24.52 z m -37.93,-85.81 c -105.52,-5.17 -212.89,-26.58 -312.94,23.2 -67.32,33.54 -131.85,74.14 -197.04,111.4 -35.66,15.45 -62.39,27.02 -88.73,37.14 28.87,9.44 57.34,20.35 87.81,23.94 92.87,11.16 170.98,-27.31 252.39,-66.44 81.83,-40.6 169.24,-67.09 254.93,-98.77 8.9,-3.86 19.28,-7.32 28.2,-11.18 -7.59,-6.79 -16.51,-20.23 -24.62,-19.29 z m -541,17.65 c -91.4,23.84 -181.07,52.85 -270.35,80.41 -15.17,3.73 -27.14,13.05 -40.18,20.5 14.11,11.71 28.35,34.46 40.86,34.72 48.96,-0.81 98.72,-4.54 145.01,-18.65 45.91,-12.65 89.55,-40.07 133.05,-61.23 39.51,-23.82 70.12,-43.78 100.31,-62.29 -36.45,1.08 -74.63,-3.04 -108.7,6.54 z m 468.6,-1713.55 c 21.3,37.26 53.77,68.12 81.04,100.71 38.06,27.67 68.94,47.09 101.67,65.45 -19.17,-33.53 -39.79,-67.46 -59.36,-99.52 -53.37,-86.87 -109,-171.22 -158.65,-260.22 -8.11,-16.37 4.79,-52.16 18.75,-68.8 45.63,-52.03 95.92,-98.08 141.15,-148.64 8.65,-8.65 7.58,-27.81 10.1,-42.84 -12.23,4.52 -26.61,5.32 -35.25,13.97 -67.45,57.09 -134.9,114.18 -197.3,175.8 -9.04,10.11 0.55,44.17 7.87,63.46 28.35,69.05 55.64,136.24 89.98,200.63 z m 510.83,225.71 c 53.76,-1.07 92.47,-4.67 132.39,-12.66 6.65,-1.33 17.02,-22.09 14.49,-24.35 -105.53,-126.26 -211.46,-251.04 -321.51,-372.23 -20.5,-22.88 -60.69,-36.98 -91.55,-39.1 -51.5,-1.46 -102.72,19.17 -152.75,18.11 -53.35,-0.39 -41.64,37.4 -30.19,53.1 94.09,127.85 186.31,256.76 294.24,374.23 22.63,26.61 101.13,3.98 154.88,2.9 z m 343.8,-72.97 c 68.52,-20.63 135.57,-41.67 203.7,-60.84 30.33,-7.46 39.51,-6.53 11.43,-36.19 -64.41,-69.45 -124.29,-143.95 -186.44,-215.92 -95.95,-109.48 -208.78,-99.36 -320.15,-88.82 -30.6,2.67 -61.2,5.33 -91.81,8 -21.01,2.13 -42.04,4.26 -63.06,6.39 12.11,19.03 20.5,40.18 33.01,57.74 82.1,102.57 165.69,205.55 250.05,305.58 45.92,56.55 105.13,41.24 163.27,24.06 z m 404.86,-158.54 c 71.57,-26.08 143.29,-58.44 214.2,-87.85 5.58,-3.19 10.11,-8.25 15.7,-11.44 -11.84,-14.23 -22.23,-28.07 -34.47,-40.84 -122.96,-137.3 -286.22,-126.75 -447.88,-122.07 -14.37,0.8 -27.68,3.46 -42.04,4.26 -25.42,0.94 -52.3,1.48 -77.71,2.41 15.84,16.9 31.27,35.25 48.58,52.54 28.87,26.74 59.61,52.43 88.49,79.16 35.79,47.49 62.95,86.34 95.69,122 44.58,49.88 94.2,17.81 139.44,1.83 z m 521.27,-199.13 c 21.81,-5.06 39.11,-22.36 59.23,-32.61 -22.65,-9.31 -45.54,-23.41 -68.68,-25.01 -36.73,-3.72 -75.44,-0.11 -112.97,-0.9 -62.53,-1.32 -126.54,-3.04 -190.53,-4.76 -9.58,0.53 -19.96,3.99 -30.34,7.45 4.93,10.78 5.33,26.61 13.31,31.94 35.93,23.94 73.05,43.49 109.78,64.51 83.02,-10.39 152.47,-22.91 220.2,-40.62 z m -197.35,-135.56 c -12.77,-5.04 -26.21,-13.42 -39.38,-17.02 -74.65,-20.34 -149.16,-46.94 -226.2,-58.5 -36.33,-5.19 -76.24,20.1 -114.83,34.74 -8.9,3.86 -13.7,21.43 -19.81,32.34 13.57,2.13 27.14,4.26 40.71,6.38 111.11,1.98 212.89,9.28 313.62,14.71 15.83,-0.4 30.73,-8.91 45.89,-12.65 z m -746.99,-178.42 c -8.51,2.39 -17.17,11.04 -25.01,16.76 -57.74,50.31 -107.22,93.42 -154.59,140.27 -3.72,2.13 9.99,32.6 13.31,31.93 162.06,-23.45 341.03,41.06 478.59,-94.41 8.24,-7.19 6.77,-24.88 10.37,-38.06 -107.78,-19.94 -206.92,-83.12 -322.67,-56.49 z m -145.3,-38.03 c -83.96,2.28 -168.58,1.22 -252.67,9.76 -102.18,11.45 -170.96,79.19 -237.21,149.19 -27.53,31.8 -50.01,68.13 -74.62,100.73 39.77,-1.74 79.16,-2 119.34,-5.21 85.56,-8.13 172.57,-15.86 258.12,-23.99 75.04,-67.61 138.89,-128.82 204.61,-191.11 6.79,-7.57 11.44,-18.89 16.76,-26.87 -11.31,-4.66 -23.29,-12.64 -34.33,-12.5 z m 147.51,-1077.76 c 91.01,12.22 180.96,22.58 271.96,34.81 166.07,31.1 318.4,-2.85 469.68,-38.67 1.46,0.4 2.79,-27.54 -0.14,-28.34 -63.86,-25.26 -128.4,-53.86 -195.06,-68.89 -112.84,-24.46 -231.26,-45.73 -344.89,-15.37 -72.91,19.43 -139.96,57.76 -207.95,87.98 -7.45,4.26 -13.83,10.38 -20.21,16.5 8.38,3.86 17.43,11.05 26.61,11.98 z m 199.94,-248.99 c 43.1,-36.99 74.49,-94.47 93.64,-147.43 37.77,-115.5 65.3,-233.79 97.21,-350.88 4.79,-17.57 5.58,-37.83 5.98,-56.53 1.33,-10.7 -3.61,-21.4 -7.06,-31.8 -10.51,9.7 -19.56,19.8 -30.07,29.5 -167.89,142.95 -263.65,321.26 -331.09,516.73 -24.33,71.98 -66.9,135.85 -101.48,205.05 -3.86,8.38 -1.86,18.36 -3.18,29 9.3,-5.32 22.21,-6.52 30.06,-12.24 83.69,-58.96 170.95,-113.79 245.99,-181.4 z m 117.89,46.29 c 159,-17.99 301.77,35.08 444.42,94.4 52.15,22.08 108.04,42.02 160.59,-6.56 68.62,-61.48 139.82,-120.7 209.92,-181.78 -92.2,-42.43 -176.03,-81 -264.92,-106.8 -60.01,-16.35 -126.4,-9.29 -184.95,-25.25 -63.99,-19.02 -109.77,4.67 -158.99,35.29 -73.84,45.92 -146.21,92.22 -220.05,138.14 -15.3,9.98 -27.41,25.56 -40.18,37.8 17.57,4.79 36.07,17.69 54.16,14.76 z m 485.2,-286.01 c 121.88,31.64 243.33,64.75 363.03,98.93 40.5,12.63 67.2,7.31 95.9,-28.9 82.9,-107.92 171.6,-214.23 257.4,-321.36 4.5,-5.06 0.1,-23.56 -4.3,-24.75 -116.3,-34.84 -233.6,-71.54 -358.4,-52.14 -144.8,40.78 -238.56,142.59 -349.79,216.05 -34.32,22.09 -71.84,38.6 -107.23,58.83 -9.32,5.32 -16.9,15.84 -25.15,23.02 9.05,7.18 17.71,15.83 27.95,18.63 33.4,4.38 67.99,4.37 100.59,11.69 z m 513.23,-394.72 c 80.4,10.9 150.3,31.5 221,42.9 24.3,3.5 67.2,-10 78.7,-28.9 127.9,-204.1 318.6,-344 505.2,-486.5 8.3,-7.2 16.5,-14.4 24.8,-21.5 -10.3,-2.8 -22.6,-9.4 -33.7,-9.2 -14,-0.7 -29.1,3 -40.7,10.9 -210.7,115.5 -421.9,232.5 -632.6,348 -62.6,33.3 -127.6,64.3 -190.1,97.6 -12.7,6 -19.6,19.8 -28.6,29.9 13.1,3.6 25.5,10.1 39.1,12.3 18.3,1.8 38.6,2.6 56.9,4.5 z m 601.5,-510.6 c -178.2,36.3 -356.7,74.1 -534.6,115.3 -73.6,16.1 -146.1,34.1 -218.3,56.8 -22.3,6.5 -52.9,26.5 -58.1,45.5 -33.9,124.5 -77.2,243.1 -158.89,346.7 -4.92,6.5 -3.72,19.4 -4.65,28.6 10.37,-3.5 21.82,-5.1 29.67,-10.8 85.57,-60 171.47,-121.5 255.57,-181.9 156.5,-89.5 301.1,-175.8 450.3,-256.2 76.7,-38.9 160.8,-64.7 240.6,-98 21.5,-9.9 39.5,-23.8 59.6,-34.1 -20.5,-5.6 -42.7,-16.3 -61.2,-11.9 z M 9968.87,4620 c -43.37,14.9 -85.68,31.7 -127.99,48.4 -110.82,54.8 -205.55,113.8 -301.34,171.1 -43.63,27.4 -47.75,65.6 -54.67,114 -21.66,137.19 -59.82,271.45 -92.14,407.3 -2.79,10.25 0.28,22.09 -1.45,34.2 9.32,-5.32 18.23,-9.18 26.47,-16.37 120,-88.37 237.88,-180.47 357.88,-268.83 88.6,-65.47 111.86,-173.9 164.14,-261.9 32.06,-54.1 56.13,-113.6 78.33,-172 8.1,-18.3 2,-41.9 1.3,-62.6 -16.2,1.9 -34.97,1.5 -50.53,6.7 z M 7839.86,6120.01 c -7.99,-22.62 -32.6,-41.91 -47.24,-63.19 -62.42,-94.07 -122.98,-189.19 -187.26,-282.18 -9.98,-15.3 -29.28,-25.27 -42.99,-38.45 1.08,19.16 -2.65,38.59 5.47,54.95 56.44,116.02 115.79,232.82 173.69,349.24 20.76,10.37 26.49,18.22 34.08,25.01 24.6,19.29 50.69,38.98 76.77,58.66 -3.33,-33.92 -2.54,-71.44 -12.52,-104.04 z m 197.43,-112.86 c 12.63,-23.29 20.22,-51.11 29.93,-75.19 -22.22,6.53 -44.84,14.51 -66,22.9 -58.27,23.43 -89.39,68.4 -93.24,128.68 0.4,15.83 25.42,33.66 39.78,50.15 35.92,-45.24 63.99,-84.76 89.53,-126.54 z m 10.22,-152.89 c 21.95,-11.31 42.84,-24.48 65.2,-37.27 48.79,-150.22 89.35,-293.26 125.92,-438.96 3.59,-13.18 -9.99,-32.6 -14.78,-49.63 -13.83,10.38 -34.99,18.77 -40.44,33.01 -41.63,106.58 -110,190.15 -196.21,264.15 -27,24.08 -25,85.95 -32.58,131.05 -2.92,16.51 5.87,36.19 6.93,55.35 2.14,90.22 2.14,90.22 85.96,42.3 z M 8159.4,5051.4 c -27.68,-48.43 -43.12,-101.4 -65.21,-153 -6,-12.6 -16.1,-21.7 -23.97,-33.3 -4.64,11.3 -10.77,22.3 -13.96,34 -22.33,81.9 -30.83,170.81 -69.94,245.06 -61.72,116.84 -5.02,237.64 -28.81,353.8 -2,7.31 16.1,21.69 24.35,31.8 12.37,-10.79 26.87,-17.84 36.71,-30.88 52.82,-78.38 106.03,-158.22 159.23,-238.06 35.65,-84.63 15.95,-145.03 -18.4,-209.42 z m -212.94,-389.8 c -33.54,-50 -57.77,-105.4 -90.9,-156.9 -7.85,-11.5 -31.01,-13.1 -47.78,-20.9 36.48,120.1 69.1,231.2 95.46,342.1 12.51,52.2 13.19,107.4 19.46,159.4 2.26,14.78 9.71,27.82 15.3,41.92 9.05,-10.12 25.81,-19.7 27.14,-30.32 20.07,-114.1 60.37,-227.3 -18.68,-335.3 z m -167.12,-15.7 c -22.2,127.6 -60.23,255.6 -61.81,382.55 -1.06,67.33 56.04,134.77 89.58,202.1 13.45,25.67 30.61,49.22 49.64,71.71 3.59,4.12 16.5,2.92 23.82,4.91 -1.61,-11.44 -3.2,-22.88 -4.8,-34.33 -18.92,-201.71 -39.98,-389.84 -62.9,-576.94 -1.86,-16.2 -5.58,-31.4 -10.38,-48.4 -1.34,-6.7 -7.85,-11.6 -10.65,-18.6 -4.92,6.5 -10.9,11.2 -12.5,17 z m -126.05,514.42 c -19.55,54.43 -51.47,102.33 -71.02,156.75 -6.65,18.62 0.41,50.43 12.91,67.99 50.71,73.56 101.41,147.14 161.43,215.38 32.35,37.12 81.17,59.86 123.22,90.19 7.85,-74.91 6.77,-145.96 3.82,-215.94 -1.73,-22.49 -5.06,-56.42 -19.57,-66.66 -91.81,-61.18 -123.49,-164.16 -176.86,-251.04 -18.9,-28.74 -21.43,-31 -33.93,3.33 z m -118.5,330.92 c 20.1,58.95 39.41,120.81 72.14,173.76 69.08,110.02 146,214.33 219.2,320.75 5.73,7.85 9.98,15.3 15.71,23.16 3.85,-8.39 10.64,-15.97 13.03,-24.75 10.36,-55.35 30.72,-112.7 24.86,-166.19 -2.67,-30.61 -47.39,-56.94 -74.4,-84.75 -109.38,-65.97 -160.36,-161.63 -218.78,-253.02 -8.92,-13.44 -23.42,-23.69 -34.61,-34.59 -5.85,15.7 -21.68,33.39 -17.15,45.63 z m -483.24,2425 c 13.3,-2.67 30.33,-24.76 27.93,-33.27 -5.32,-26.61 -16.24,-67.33 -33.41,-73.58 -49.36,-15.02 -103.12,-13.95 -155.94,-22.06 -16.9,-1.46 -32.46,-13.56 -47.77,-20.88 -55.75,-26.2 -98.33,-48.81 -139.85,-69.56 -11.31,-4.66 -24.61,-1.99 -35.26,-3.32 1.6,11.44 -0.13,23.55 4.8,34.33 63.88,129.05 247.78,221.62 379.5,188.34 z m 115.47,-100.62 c 5.19,-19.02 8.25,-24.48 7.98,-29.27 0,-34.59 1.05,-67.32 1.04,-101.92 -7.84,5.73 -23.01,9.46 -23.54,17.17 -10.1,42.85 -46.42,89.56 4.95,131.86 3.05,-5.46 6.51,-12.38 9.57,-17.84 z m 5.23,-596.08 c -2.54,-54.15 -7.61,-93.26 -14.13,-132.78 -2.67,-13.3 -7.19,-25.55 -11.72,-37.79 -10.91,11.19 -28.07,22.23 -30.59,37.26 -27.79,130.8 -57.84,264.12 -75.38,397.72 -7.31,49.89 15.45,104.84 27.97,156.99 3.06,11.85 14.64,21.29 24.35,31.8 9.45,-11.58 27.01,-24.09 27.67,-38.06 18.74,-137.98 34.55,-276.76 51.83,-415.14 z M 7048.97,6835.3 c -45.91,-73.84 -103.01,-141.28 -156.37,-210.86 -5.32,-9.31 -12.91,-16.1 -20.1,-24.34 -4.25,9.84 -9.58,17.83 -10.5,27.01 -5.83,171.38 -44.12,346.47 40,510.92 15.57,29.4 20.36,63.73 30.75,94.86 19.56,49.36 35.27,89.81 49.52,129.85 12.9,-35.79 29.13,-72.25 39.1,-108.84 23,-95.94 47.86,-192.93 60.62,-291.66 4.92,-41.13 -11.33,-91.15 -33.02,-126.94 z m -319.66,-407.89 c -36.6,-61.86 -82.12,-119.86 -124.31,-178.53 -9.31,-11.98 -23.81,-22.22 -35.4,-31.66 -4.78,17.56 -16.62,37.92 -11.43,53.48 12.65,45.91 31.95,90.48 49.79,134.65 37.4,93.53 74.81,187.06 110.35,281.65 15.7,40.45 25.43,85.56 37.41,128.13 15.43,-16.23 31.79,-41.65 34.18,-67.73 5.58,-55.09 13.82,-114.17 3.56,-168.85 -9.18,-52.82 -36.07,-104.18 -64.15,-151.14 z m -190.52,116.33 c 15.05,54.41 19.18,102.72 37.42,145.42 6.65,15.97 44.84,20.08 69.32,28.33 -4.79,-17.03 -7.72,-35.13 -12.51,-52.16 -14.25,-40.05 -29.96,-80.49 -44.2,-120.54 -8.39,-21.16 -18.23,-42.71 -28.48,-62.8 -7.05,20.1 -14.5,41.65 -21.55,61.75 z m 31.71,275.95 c 12.92,67.99 6.28,138.5 9.22,208.49 6.54,126 41.28,171.63 160.5,207.27 40.98,11.17 82.09,16.08 122.41,23.93 -13.17,-38.19 -28.22,-75.31 -41.39,-113.49 -22.63,-61.2 -44.2,-120.54 -66.83,-181.74 -50.17,-63.99 -94.62,-120.13 -143.59,-171.22 -8.65,-8.64 -52.57,-37.91 -40.32,26.76 z m 9.13,439.61 c 19.57,101.25 39.55,201.03 59.12,302.28 97.15,87.8 204,134.22 321.62,158.42 17.96,3.32 38.32,-2.14 56.02,-3.61 -3.33,-16.63 -4.8,-34.32 -9.59,-51.35 -22.77,-72.25 -48.86,-143.82 -69.76,-217.14 -17.44,-62.93 -50.17,-98.58 -116.84,-113.6 -76.51,-19.28 -147.56,-52.81 -220.62,-79 -5.85,-1.6 -19.95,4 -19.95,4 z m -97.04,2121.43 c 19.82,2.25 41.64,-20.11 61.73,-30.35 -14.9,-8.78 -31.27,-17.96 -46.18,-26.74 -84.76,-46.69 -169.52,-93.37 -254.28,-140.06 -21.83,-12.24 -38.33,-15.16 -56.69,-17.02 6.26,17.43 5.46,37.65 15.84,51.49 67.48,98.58 166.21,145.93 279.58,162.68 z m 41.48,-186.82 c 24.73,-108.05 -18.66,-179.62 -121.38,-212.33 -88.09,-28.73 -183.75,-46.94 -244.98,-128.09 -8.25,-10.12 -22.89,-14.11 -33.39,-21.68 -0.27,12.5 -0.53,25.01 0.67,37.91 2.53,19.56 5.46,37.66 8.39,55.75 8.13,85.56 26.77,144.1 110.73,176.41 81.43,30.06 154.35,79.81 232.6,121.58 31.67,16.49 41.24,-1.34 47.36,-29.55 z m 96.74,20.07 c 21.8,-91.54 42.14,-183.48 62.88,-276.89 1.2,-4.39 -10.38,-13.84 -16.5,-20.22 -5.85,15.7 -11.71,31.4 -17.56,47.1 -24.73,90.75 -45.87,168.32 -65.15,244.83 -2.4,8.78 8.39,21.16 15.17,30.87 6.79,-7.59 19.83,-15.04 21.16,-25.69 z m -11.16,-622.55 c -10.38,-48.43 -24.76,-82.23 -41.39,-113.49 -5.33,-9.31 -16.64,-13.97 -25.69,-21.15 -5.31,7.98 -12.5,17.03 -13.43,26.21 -7.03,158.47 -26.96,318.14 27.89,474.6 4.52,12.24 13.84,24.21 20.23,35.39 5.05,-12.78 13.03,-24.75 17.02,-39.39 18.75,-51.49 36.04,-103.39 53.33,-155.28 23.67,-75.31 5.96,-143.04 -37.96,-206.89 z m -228.52,-401.92 c -21.29,-19.95 -31.27,-52.55 -46.18,-78.63 -6.39,-11.17 -13.17,-20.88 -19.96,-30.6 -5.05,12.78 -18.22,26.48 -15.17,38.32 12.67,97.8 -15.66,201.72 45.03,290.59 31.81,62.13 58.29,114.95 84.78,167.76 3.86,8.92 9.98,15.3 16.1,21.69 3.86,-8.39 9.18,-16.37 11.57,-25.15 38.3,-140.51 41.47,-273.3 -76.17,-383.98 z m -196.16,-261.02 c -61.22,-63.86 -102.88,-147.54 -156.51,-221.91 -8.91,-13.44 -29.01,-20.48 -43.51,-30.73 1.46,17.7 1.07,36.46 8.12,50.96 31.55,74.64 66.82,147.15 100.23,220.72 40.99,80.36 77.06,149.94 114.2,221.39 5.32,9.31 14.77,15.03 22.35,21.81 2.4,-8.78 9.98,-19.29 9.05,-27.41 -9.73,-79.7 17.4,-161.93 -53.93,-234.83 z m -175.48,101.55 c 16.24,84.62 19.05,178.15 59.12,250.4 31.14,58.8 108.05,93.92 165.27,137.81 5.06,4.53 18.76,0.4 27.95,1.33 -2.67,-13.31 -1.61,-28.74 -8,-39.92 -60.69,-106.16 -122.44,-214.19 -183.13,-320.36 -7.72,-17.83 -9.72,-27.81 -13.58,-36.72 -8.92,-13.44 -18.23,-25.41 -27.55,-37.38 -7.31,15.3 -22.75,31.53 -20.08,44.84 z m 72.2,502.4 c 2.13,21.02 6.12,40.98 8.26,62 5.6,100.59 114.6,237.22 211.87,266.87 44.57,15.3 86.49,34.58 129.2,50.94 13.17,3.59 29,3.19 42.97,3.85 -3.06,-11.84 -3.19,-22.88 -8.12,-33.66 -39.66,-108.3 -70.42,-220.46 -126.45,-320.64 -21.96,-40.57 -97.54,-51.74 -148.9,-76.75 -45.25,-35.91 -83.3,-63.58 -123.23,-90.19 4.93,45.37 9.86,90.75 14.4,137.58 z m -526.06,1785.96 c -40.46,-53.5 -87.97,-104.2 -136.27,-151.9 -9.72,-10.6 -30.35,-9.9 -46.05,-15.7 3.07,11.8 5.73,25.1 12.11,36.3 33.68,61.1 67.75,120.7 102.89,182.1 35.79,12.9 55.48,21.4 76.64,30.3 -2,-27.2 4.25,-61.7 -9.32,-81.1 z m 112.29,-2.4 c 48.02,-95.4 94.57,-191.2 139.66,-287.5 6.52,-12.3 0.26,-29.76 -2,-44.53 -11.98,9.32 -25.01,16.73 -35.92,27.93 -22.49,19 -45.76,41 -67.18,61.9 -31.52,81 -54.13,158.2 -74.87,234.3 -1.6,5.9 9.85,21.6 14.64,21.3 8.11,-0.9 20.75,-6.9 25.67,-13.4 z m 166.23,-552.24 c -0.15,-80.22 -4.29,-145.83 -10.28,-210.35 -0.54,-9.58 -17.83,-26.88 -21.56,-24.75 -11.85,3.06 -27.54,14.51 -30.33,24.75 -37.38,114.04 -74.74,228.07 -106.66,345.16 -9.17,33.67 0.28,73.98 1.35,110.43 29.54,-21.81 59.07,-43.64 88.21,-64 63.86,-43.92 91.25,-104.07 79.27,-181.24 z m -96.14,-449.17 c -6.26,-17.43 -12.12,-36.32 -18.38,-53.75 -19.42,-38.32 -33.54,-67.32 -47.64,-96.32 -10.24,31.8 -17.16,62.93 -29.92,92.47 -55.47,116.97 -30.03,237.11 -16.71,355.52 0.13,11.05 13.58,19.43 20.36,29.14 8.65,-8.65 19.16,-18.36 24.88,-27.81 20.62,-35.27 34.71,-75.45 61.45,-104.33 58.4,-64.27 28.85,-128.93 5.96,-194.92 z m -225.22,-523.66 c -2.79,-7.05 -10.38,-13.84 -16.5,-20.23 -3.86,8.39 -12.91,18.5 -11.97,26.62 6.13,58.28 10.8,116.15 20.65,172.3 11.99,77.17 27.7,152.21 43.41,227.25 3.33,16.63 15.18,30.86 23.29,47.23 6.92,-13.84 16.77,-26.88 22.22,-41.12 10.24,-31.8 17.15,-62.94 25.93,-95.14 -32.88,-115.88 -70.16,-215.67 -107.03,-316.91 z m -89.9,231.79 c -11.7,83.3 -16.48,152.75 -30.44,221.27 -11.29,64.54 46.6,180.95 109.14,199.57 5.86,1.59 26.08,-14.91 24.75,-21.56 -22.64,-130.39 -48.61,-260.12 -74.58,-389.84 -2,-9.97 -12.11,-19.02 -19.3,-27.27 -3.06,5.46 -6.51,12.38 -9.57,17.83 z m -67.26,414.08 c -55.73,129.47 2.7,220.87 89.2,307.34 34.6,34.59 68.8,70.64 105.26,104.16 7.59,6.78 21.96,5.98 33.66,9.18 1.33,-10.65 2.66,-21.29 1.06,-32.73 -7.32,-71.19 -0.16,-149.43 -28.64,-212.22 -23.16,-53.49 -85.7,-89.4 -131.88,-133.43 -16.1,-21.69 -30.6,-31.93 -37.66,-46.43 -18.1,-31.67 -19.43,-21.02 -31,4.13 z m -39.06,351 c -29.37,171.25 80.68,275.1 187,381.2 19.83,19.5 37.8,40.2 57.63,59.7 5.45,-31.5 9.84,-64.9 15.28,-96.5 1.33,-10.6 3.73,-19.4 6.52,-29.6 46.94,-131.9 -57.25,-182.31 -133.89,-247.23 -7.59,-6.79 -13.31,-14.64 -19.44,-21.02 -30.73,-25.67 -45.37,-46.96 -63.74,-66.12 -10.38,-13.83 -24.89,-24.07 -38.99,-35.78 -3.32,17.96 -6.65,35.92 -10.37,55.35 z m -688.44,1493.3 c -48.71,-98.2 11.14,-214 117.31,-240.1 84.76,-22.5 170.58,-43.1 252.13,-71.2 126.8,-44.1 251.59,-98.1 378.78,-143.7 151.28,-53.1 221.12,-136.2 209.25,-271.5 -2.13,-21.1 -24.09,-44.4 -42.19,-58.7 -42.71,-33.7 -102.32,-51.5 -130.54,-92.2 -54.56,-82.5 -106.07,-170.4 -134.29,-263 -70.69,-225.28 -63.55,-459.2 -32.58,-688.19 25.11,-178.69 82.56,-354.86 126.04,-531.7 7.58,-27.81 31.26,-51.23 33.65,-77.31 12.35,-166.45 18.44,-333.04 30.39,-498.03 3.45,-24.22 30.72,-60.81 52.14,-64.4 40.98,-6.13 43.52,30.73 40.6,64.52 -2.39,26.08 -1.46,51.49 -5.71,78.64 -14.62,99.79 -5.69,199.71 35.44,291.11 126.85,284.58 279.64,560.51 355.27,865.72 49.52,199.05 55.28,397.16 -60.45,579.44 -43.36,66.8 -100.96,128.2 -128.63,200.8 -33.78,83.6 -49.73,176.7 -60.49,268.1 -3.45,41.6 36.06,17.7 50.7,4.4 73.83,-63.2 150.19,-124.1 216.84,-195.6 200.61,-211.1 399.76,-422.5 592.78,-640.36 38.05,-41.52 94.59,-87.43 67.83,-162.33 -29.15,-83.43 -53.25,-162.32 -165.55,-177.2 -109.37,-14.09 -215.82,-61.97 -277.18,-154.17 -50.97,-78.36 -94.63,-172.02 -107.41,-263.56 -37.71,-288.59 -60.24,-580.9 -87.97,-871.49 -14.26,-143.83 -25.19,-288.32 -44.24,-431.89 -15.32,-111.09 -43.55,-220.99 -62.19,-331.42 -4.4,-18.49 15.95,-41.25 26.33,-62.01 21.82,12.24 59.61,17.82 62.94,34.45 61.64,200.77 206.83,348.83 325.27,508.48 152.12,203.41 315.14,395.65 420.56,631.93 84.65,191.32 93.47,383.98 54.38,579.31 -24.06,111.37 -71.94,217.82 -101.87,327.6 -9.3,39.91 0.82,83.56 5.08,125.6 1.2,12.91 9.05,24.48 15.44,35.66 11.97,-9.32 28.34,-17.44 36.72,-30.88 45.36,-74.12 96.17,-145.18 131.69,-223.55 53.6,-115.9 98.82,-235.66 143.64,-353.95 12.5,-34.33 10.76,-74.11 23.66,-109.9 41.22,-122.42 88.71,-244.71 130.33,-368.59 44.02,-132.66 57.57,-268.91 32.93,-409.28 -12.25,-64.66 -37,-77.7 -95.67,-52.8 -24.49,9.05 -50.83,19.16 -75.44,17.17 -201.72,-15.66 -319.09,-156.15 -398.16,-316.06 -49.38,-101.52 -57.78,-226.46 -73.37,-342.34 -17.45,-132.12 -26.78,-265.17 -33.19,-397.43 -8.01,-143.69 -16.01,-287.39 -8.59,-430.03 13.41,-199.18 3.53,-393.71 -30.96,-590.22 -10.8,-64.26 -6.82,-130.8 -6.16,-196.65 -1.2,-12.92 18.49,-38.99 21.41,-38.2 23.02,7.85 47.51,16.1 63.34,32.99 11.18,10.91 9.19,35.53 10.66,53.22 5.47,89.54 12.8,178.03 67.9,252.8 97.68,131.97 199.09,261.81 298.64,392.72 78.78,103.23 175.4,198.75 234.09,312.24 66.95,123.59 111.55,259.97 131.66,405.39 28.77,205.96 17.9,407.41 -14.66,607.66 -16.62,107.11 -26.58,212.89 -21.11,319.73 1.6,11.45 10.91,23.42 17.31,34.59 8.64,-8.64 21.28,-14.63 25.53,-24.48 8.12,-18.23 11.84,-37.66 17.43,-58.15 26.32,-96.6 45.73,-196.66 81.25,-292.33 54.25,-147.17 118.36,-290.08 179.95,-435.26 60.38,-140.78 122.62,-282.62 187.4,-422.2 59.72,-126.82 171.99,-233.01 144.03,-390.01 -10.26,-54.68 -6.54,-126 -39.01,-156.87 -81.97,-74.23 -143.47,-160.16 -207.48,-248.38 -115.38,-165.09 -165.97,-348.7 -185.83,-541.23 -19.86,-192.53 77.38,-353.13 145.34,-521.73 25.26,-63.86 58.93,-123.89 76.47,-188.29 15.3,-61.9 19.27,-128.4 21.39,-193.9 4.9,-110.3 8.35,-221 4.07,-332.2 -2.32,-41.7 179.5,39.5 222.62,106.3 101.54,158.2 217.99,307.8 303.17,474.1 121.25,235.92 121.03,490.59 65.59,745.93 -44.8,204.77 -140.18,381.62 -285.04,532.4 -24.88,27.81 -41.64,71.98 -45.36,108.71 -7.3,84.48 -6.89,169.51 -8.34,255.6 0.14,11.04 7.99,22.61 12.92,33.4 8.24,-7.19 15.03,-14.78 23.68,-23.43 258.48,-250.31 519.88,-499.84 775.18,-755.74 51.48,-50.44 91.25,-121.36 116.65,-191.49 38.57,-101.13 53.45,-213.43 92.02,-314.56 28.07,-74.11 67.57,-149.82 120.64,-206.11 89.67,-98.22 187.32,-191.11 294.54,-267.21 134.51,-95.4 274.86,-189.3 424.54,-253.8 182,-79.4 375.99,-133.4 568.49,-187.9 142.5,-38.2 287.4,-67.9 433.9,-86.1 160.4,-17.6 322,-16 484.2,-28.4 60.8,-3.9 107.9,13.7 146.3,57.1 14,18 25.7,38.5 37.8,57.5 -21.3,14.7 -42.3,34.1 -66.7,43.1 -73.1,25.7 -158.9,29.1 -222,70.1 -168.7,111.2 -304.6,258.1 -426.6,423 -113.3,156.24 -237.6,306.35 -371.5,445.95 -111.4,114.3 -236.2,220.24 -368.7,308.35 -117.2,78.11 -248.11,143.07 -382.63,186.6 -215.66,70.16 -432.15,22.16 -645.58,-31.29 -72.12,-18.09 -133.85,-5.04 -187.2,46.46 -176.13,167.42 -354.79,332.56 -528.41,502.24 -118,115.65 -238.92,230.49 -338.42,359.03 -82.88,107.92 -138.21,235.93 -204.05,356.36 -37.51,68.4 -71.42,140.92 -103.47,212.37 -5.73,9.45 3.85,26.21 6.12,40.98 11.57,-7.85 24.22,-13.84 34.32,-22.09 66.25,-52.7 125.85,-121.37 200.49,-152.92 76.11,-31.14 131.05,-71.2 183.86,-132.28 46.43,-54.96 104.56,-106.73 166.83,-144.8 135.7,-82.51 281.38,-132.43 448.23,-138.85 188.93,-6.68 373.49,2.74 555.77,49.28 137.99,36.03 275.18,74.99 412.75,112.49 86.36,23.54 173.12,45.61 259.08,70.61 60.67,19.68 118.91,48.14 180.81,63.43 92.2,25.14 189.1,38.96 280.9,65.55 17.6,4.79 25.6,44.71 37.9,68.52 -18.2,9.19 -36.1,23.16 -53.8,24.63 -121.4,12.52 -246.2,-2.62 -360.34,52.74 -45.38,22.24 -87.55,50.05 -133.58,68.95 -259.18,108.62 -517.28,219.09 -777.78,321.05 -237.88,93.98 -478.98,130.48 -718.36,-0.81 -127.35,-69.29 -232.34,-151.37 -288.24,-292.4 -46.06,-119.48 -130.69,-155.12 -224.48,-53.31 -7.18,9.04 -20.88,13.17 -32.06,19.56 -136.76,80.65 -235.2,211.06 -301.97,340.67 -109.87,218.49 -178.22,457.74 -257.48,690.86 -30.59,89.15 -36.29,185.08 -62.49,275.43 -59.17,205.58 -125.67,409.16 -188.17,615.41 -5.05,12.77 -1.32,27.94 -1.99,41.91 10.38,-3.46 20.76,-6.92 31.14,-10.39 61.2,-22.62 122,-43.79 181.73,-66.82 24.89,-10.52 55.88,-14.64 73.18,-31.94 126.78,-113.25 284.98,-162.91 441.44,-183.16 270.49,-34.77 541.93,-9.54 806.99,56.41 176.43,44.95 355.26,81.1 523.73,155.32 134.52,60.25 277.43,107.06 414.62,163.32 48.17,19.42 92.88,45.76 136.79,75.02 11.98,7.98 22.23,45.37 16.24,50.03 -13.17,13.7 -38.32,19.43 -58.28,23.42 -11.83,3.07 -25.27,-5.31 -36.98,-8.51 -229.81,-79.92 -462.77,-61.66 -693.75,-16.11 -201.04,39.55 -397.95,92.8 -598.19,129.43 -209.82,37.16 -421.9,76.84 -629.88,-8.14 -128.41,-53.87 -244.71,-123.31 -334.41,-232.66 -20.09,-24.35 -57.35,-54.94 -82.1,-50.68 -110.83,20.11 -225.25,36.09 -294.55,146.14 -57.07,88.23 -114.13,176.45 -178.12,261.22 -109.35,141.59 -222.02,283.82 -339.35,420.12 -101.1,117.1 -210.85,225.6 -317.01,338.1 -18.09,20.3 -36.19,40.5 -54.28,60.7 30.21,-1.2 61.08,0.9 88.49,-7.3 75.17,-22 148.33,-71.2 223.78,-71.1 166.05,-3.5 328.36,-56.7 502.01,-1.6 171.78,56.3 362.85,53.3 540.08,95.4 126.68,31.3 244.17,96.4 366.46,143.9 102.59,38.9 205.98,75 308.17,115.4 50.7,21.7 103.25,42.3 146.37,74.5 21.03,15.2 20.51,57.5 29.82,86.7 -27.27,2 -54.68,10.3 -81.43,4.6 -124.94,-26.2 -249.08,-72.6 -375.89,-80.5 -129.73,-8.6 -261.31,18.4 -391.17,33.4 -133.59,17 -267.83,48 -401.55,54.1 -123.74,4 -249.74,10.5 -366.04,-58.9 -56.29,-35.8 -126.68,-48.7 -194.27,-71.8 -59.08,-42.9 -129.47,-73.1 -165.14,-126.8 -52.44,-78.8 -129.88,-88.9 -203.72,-94.9 -64.27,-6.5 -140.78,8.8 -197.72,38.9 -116.14,62.7 -217.78,152.9 -337.12,210 -201.56,99.2 -414.17,181.2 -619.99,272.9 -64.26,28.1 -122.93,70.3 -187.19,98.4 -15.96,6.6 -55.48,-4.1 -62.54,-18.6"
         style="fill:#7e967b;fill-opacity:1;fill-rule:nonzero;stroke:none"
         id="path28" />
      <path
         d="M 747.934,30.8008 C 628.098,48.6016 519.438,35.1992 418.945,0 H 889.859 C 844.742,14 797.344,23.6016 747.934,30.8008"
         style="fill:#7e967b;fill-opacity:1;fill-rule:nonzero;stroke:none"
         id="path30" />
      <path
         d="m 2539.79,245.301 c -77.6,-0.801 -155.87,6 -234.32,-2.399 -67.74,-9 -110.81,13.098 -148.99,66 -45.02,61.5 -94.31,119.598 -140.72,179.496 -10.4,14.301 -17.91,30.403 -26.8,44.903 16.09,7.5 33.29,19.601 51.29,22.801 118.72,18.097 235.03,11.597 356.6,-37.102 53.47,-88.199 106.8,-174.898 160.27,-263 0,0 -11.29,-10.199 -17.33,-10.699 z m -610.92,364.898 c -18.27,-0.097 -42.62,34.301 -56.85,57.403 -5.2,7.199 3.11,33.8 14.67,40.898 112,76.902 316.59,53.801 421.26,-45.102 8.36,-8.398 10.94,-20.296 16.41,-30.496 -10.45,-2.402 -22.01,-9.601 -34.23,-9.101 -46.14,5.101 -93.91,11.5 -155.3,16.699 -16.89,1.602 -35.68,7.602 -52.04,3.102 -52.36,-10.7 -102.41,-30.403 -153.92,-33.403 z m -78.58,-162.297 c -12,32.5 -22.36,63.5 -34.36,96 -1.91,4.399 -0.93,10.598 -2.66,30.2 0.97,6.199 1.82,13.898 2.79,20 62.85,-21.801 44.98,-78.204 50.36,-121.903 2.18,-7.398 -10.75,-16.199 -16.13,-24.297 z M 1080.9,1918.2 c -31.73,-2.8 -64.71,-8.8 -96.841,-7 -35.157,1.4 -74.848,2.5 -102.278,19.9 -42.09,28.2 -76.176,69.4 -111.511,107.4 0,0 14.043,13.4 36.043,23 92.628,-31.4 186.5,-59.7 277.877,-94.3 18.94,-7.4 31.92,-33.7 47.12,-50.6 -16.76,0 -33.65,1.6 -50.41,1.6 z m -2.13,-131.2 c -74.18,-56.8 -148.223,-115.1 -225.696,-169.1 -28.621,-20.8 -65.867,-30.2 -99.691,-43.9 21.91,27.9 43.691,57.2 72.492,93.2 33.465,35 64.891,75.8 103.559,103.6 38.535,29.3 83.916,50.1 129.556,67.8 11.83,4.1 33.07,-12.3 50.36,-18.4 -9.64,-11.5 -17.64,-24.4 -30.58,-33.2 z m -727,-373.3 c -7.293,-3.7 -20.317,5.8 -29.782,9.6 7.02,6.7 15.555,13.5 22.578,20.2 69.379,59.5 142.18,114.6 204.852,181.1 62.805,64.9 122.715,128.1 213.695,149.8 29.825,7.2 60.317,6.8 90.672,8 -21.203,-18.6 -42.269,-38.7 -70.355,-65.6 -48.227,-57.6 -94.668,-118 -146.184,-172.8 -76.582,-81.4 -184.723,-98.5 -285.476,-130.3 z M 60.0625,1371.2 c -18.5312,3 -35.418,4.5 -53.95312,7.4 9.64452,11.6 19.15622,24.6 30.30472,36.2 30.8515,30.2 69.6489,56.4 92.4099,91.9 86.176,128 236.317,135.1 359.258,191.7 8.805,3.8 22.934,-1.1 35.156,-1.5 -5.246,-9.6 -10.355,-20.7 -18.758,-29.1 C 432.211,1606.6 355.141,1548 286.43,1481.1 226.117,1422.4 168.828,1364.1 60.0625,1371.2 Z m 328.8595,536.2 c -11.246,6.6 -20.984,13.4 -32.227,20 10.043,7 18.446,15.3 28.621,20.8 64.625,27 130.895,52.7 210.77,79.5 53.863,10.9 98.488,5.6 129.383,-51 16.265,-29 46.976,-49.2 70.539,-74.5 6.84,-8.5 12.308,-18.7 19.285,-28.8 -10.313,-3.9 -20.488,-9.4 -32.445,-12 -32.711,-8.9 -67.465,-12 -96.758,-25.3 -86.488,-38.1 -167.43,-52.8 -237.52,33.9 -13.691,17.1 -40.316,25.4 -59.648,37.4 z M 1610.33,3564 c -44.22,0.7 -87.07,3 -138,10.7 -10.94,20.3 -23.25,39 -34.19,59.4 4.67,-1.1 10.72,-0.6 15.39,-1.7 53.95,-7.4 106.27,-13.5 158.98,-24 10.84,-2.1 18.49,-19.7 27.11,-31.1 -10.31,-4 -20.22,-12.5 -29.29,-13.3 z m -75.29,-113.2 c -87.47,-44.3 -173.56,-86.9 -261.16,-129.7 -5.92,-2 -13.87,1.8 -21.69,4.2 3.73,9.4 3.91,24.7 9.42,31.3 35.25,32 72.14,62.7 122.49,96.1 44.94,8.5 89.74,18.5 134.67,27.1 12.09,1 24.45,-0.9 35.16,-1.5 -5.24,-9.6 -10.09,-23.7 -18.89,-27.5 z m -299.52,-40.2 c -42.14,-40.2 -78.41,-95.2 -128.32,-116.4 -88.26,-35.2 -184.45,-49.8 -278.454,-71.8 -7.422,-2.1 -23.336,5.6 -25.508,13 -2.183,7.4 2.528,23.1 9.551,29.8 32.625,27.2 67.024,51.6 108.184,85.7 93.467,28 186.807,57.6 280.407,84.1 11.83,4.1 26.1,-2.2 39.96,-4.1 -0.84,-7.7 -1.55,-16.9 -5.82,-20.3 z M 747.543,3262.5 c -58.848,-23.5 -119.473,-44.1 -193.699,-65.8 -19.645,-1.8 -40.668,-5.2 -60.578,-3.9 -7.559,-0.6 -17.692,10.6 -21.379,17.9 -1.91,4.4 7.465,19 14.89,21.1 81.516,25.5 163.164,49.5 244.942,71.9 10.445,2.5 23.203,-4 33.91,-4.6 -6.484,-12.8 -9.285,-32.8 -18.086,-36.6 z m -418.152,-24.7 c -13.469,-2.8 -27.336,-0.9 -39.426,-2 8.137,11.4 16.133,24.3 26.183,31.2 57.778,35.6 113.778,74.1 175.379,100.8 29.293,13.3 69.786,3.1 103.7,-1.5 10.711,-0.6 19.867,-18 29.867,-27.8 -11.692,-5.6 -23.246,-12.7 -35.071,-16.8 -59.117,-20.5 -119.742,-41.1 -193.964,-62.8 -22.266,-6.6 -44.399,-14.6 -66.668,-21.1 z m 303.523,201.9 c 52.402,27.4 104,64 160.633,78.1 28.308,7.1 66.398,-27.6 100,-46 14.402,-7.8 27.687,-20.4 42.355,-31.3 -17.332,-10.6 -33.152,-21.2 -65.597,-33.2 -75.61,-23.4 -152.453,-50 -226.059,7.5 -6.574,5.5 -12.707,23.2 -11.332,24.9 z m 367.035,172.5 c 125.651,43.1 249.301,57 364.731,-25.7 12.89,-8 13.51,-32.3 12.76,-58.3 -87.25,-12.2 -175.61,-29.2 -263.26,-36.9 -42.31,-3.8 -87.07,3 -126.321,16.3 -34.445,10.6 -62.668,37.1 -93.382,57.2 35.207,15.3 70.003,35.1 105.472,47.4 z M 2352.37,3439.1 c 2.35,7.8 12.13,17.8 19.42,21.5 4.4,1.9 20.58,-8.8 21.12,-14.9 6.93,-78.5 12.49,-158.8 11.02,-245.7 -12.85,-27 -27.07,-55.7 -41.56,-81.3 -6.35,-14.3 -16,-25.8 -24,-38.7 -7.24,13.1 -19.16,27.2 -17.33,41.1 8.93,105.9 19.38,211.9 31.33,318 z m 107.61,-287.5 c 13.64,-33.8 36.49,-68.3 39.56,-103.1 10.67,-120.9 15.15,-240.8 19.64,-360.7 0.94,-10.6 -9.82,-26.8 -19.86,-33.7 -2.76,-3.3 -24.98,6.9 -28.81,15.7 -28,58.4 -54.62,118.5 -82.58,193.7 -38,68.3 -33.16,134.2 11.51,197.5 20.27,29.2 40.4,59.9 60.54,90.6 z m 42.39,399.7 c 54.27,-45.4 106.9,-89.5 159.66,-135.1 9.86,-8.3 16.97,-19.8 23.95,-29.9 -16.76,0.1 -35.87,-7.7 -48.62,-1.2 -61.87,28 -124.01,59.1 -180.5,95.2 -19.47,13.5 -25.56,48 -36.89,72.9 22.94,-1 44.36,-2.2 82.4,-1.9 z m 362.69,-485.7 c 3.25,-19.6 6.36,-37.6 9.47,-55.6 -17.29,6.1 -34.45,10.7 -48.98,20.1 -23.87,11.6 -44.98,26.5 -82.72,39.9 -7.95,3.9 -16.04,9.2 -25.51,13 -94.4,34.3 -209.61,45.4 -211.3,185.4 -0.93,10.6 -1.73,19.6 -4.17,30.1 -5.83,31.5 -13.3,64.3 -19.12,95.8 25.38,-11.5 49.38,-24.6 74.76,-36.1 136.49,-62.5 275.75,-121.8 307.57,-292.6 z m 85.08,-342.8 c -2.14,-27.6 0.31,-38.1 -27.65,-14.6 -11.65,11.1 -28.8,15.7 -51.43,30.5 -58.57,25.2 -129.69,37.2 -169.96,79.4 -48.49,49 -68.89,124.9 -100.45,189.1 -5.47,10.2 -7.91,20.6 -10.36,31.1 12.09,1 25.3,6.8 34.76,3 45.82,-18.8 90.4,-40.7 134.85,-61.2 111.12,-51.1 197.61,-116.6 190.24,-257.3 z m 80.49,-411.7 c -0.98,-6.2 -1.82,-13.9 -2.8,-20.1 -9.6,5.3 -22.22,10.3 -27.55,18.9 -69.34,112.7 -138.68,225.4 -205.13,339.8 -3.55,5.8 9.69,28.3 15.74,28.8 65.11,4.2 159.78,-84.9 171.56,-149.3 10.67,-69.1 30.27,-135.9 48.18,-218.1 z m 20.54,-232.7 c 3.69,-7.3 -1.29,-20 -2,-29.2 -7.95,3.9 -17.42,7.6 -22.49,13.3 -69.69,82.2 -139.25,162.8 -210.28,260.1 -2.93,33.3 -7.24,64.9 -8.67,98.3 0.18,15.2 4.89,30.8 6.58,46.2 13.29,-12.5 29.33,-21.7 38.22,-36.2 40.76,-64.9 81.52,-129.9 119.53,-198.1 28.71,-49.2 53.15,-101.9 79.11,-154.4 z m -381.44,353.1 c -11.92,14.2 -23.96,29.9 -35.87,44.1 -44.36,53.9 -94.49,104.3 -62.01,184.9 15.07,36.3 14.36,78.9 21.47,119.1 2.09,10.9 8.58,23.6 13.69,34.7 9.73,-6.7 25.25,-9.9 29.2,-20.2 53.56,-106.5 119.07,-210.4 107.61,-339.3 -1.74,-32.1 2.58,-63.7 4,-97.1 -23.29,22.3 -46.58,44.6 -78.09,73.8 z m -818.08,-325 c 9.73,-6.7 24.14,-14.6 24.93,-23.7 8.45,-78.4 15.51,-158.5 23.79,-252.2 -0.05,-16.8 -0.09,-33.5 -0.14,-50.3 -7.95,3.9 -22.09,8.7 -22.49,13.3 -12.93,94.8 -25.73,188.1 -37.03,281.5 -2.44,10.4 7.21,22 10.94,31.4 z m 60.89,172.9 c 112.14,23.6 221.17,13.4 318.64,-55.6 14.53,-9.4 20.8,-28.6 32.71,-42.8 -17.87,-4.7 -34.36,-7.6 -59.07,-3.7 -95.69,14.4 -191.39,28.8 -287.08,43.2 -17.02,3.1 -35.56,6 -52.58,9.1 15.29,16.5 28,45.1 47.38,49.8 z m 485.4,-305.9 c 9.02,-16 18.05,-31.9 27.2,-49.4 5.6,-11.7 9.69,-23.5 13.78,-35.3 -12.49,3.5 -27.6,2.1 -38.84,8.7 -85.56,54.9 -181.61,38.8 -274.19,35.2 -107.7,-4.9 -173.21,47.2 -187.48,157.1 -4.04,28.6 -1.25,48.6 34.18,44.1 87.87,-12 173.52,-33.4 260.32,-33.3 89.96,-1.2 127.74,-49.7 165.03,-127.1 z m 155.52,-295.4 c 9.29,-19 19.96,-36.4 29.25,-55.3 20.49,-42.4 40.84,-83.2 61.2,-124.1 -46.66,11.1 -91.96,23.9 -146.85,41.9 -56.85,5.6 -131.61,-10.1 -166.27,20.3 -87.29,74.6 -155.03,169.1 -229.79,256.9 -8.36,8.4 -12.31,18.8 -19.3,28.8 13.34,4.2 28.05,10.1 41.65,11.3 45.74,-0.5 91.74,-4.1 138.85,-3 101.52,5.9 251.13,-84.4 291.26,-176.8 z m 271.17,-501.5 c 7.12,-11.6 -1.72,-32.2 -3.28,-49 -12.89,8 -25.78,16 -38.81,25.5 -6.71,7 -12.04,15.7 -25.46,29.7 -93.74,78.5 -189.13,158.4 -282.86,237 -9.87,8.3 -14.22,23.1 -21.34,34.7 8.94,2.3 20.36,10.9 26.67,8.4 68.89,-21.3 153.21,-27.6 202.81,-72 62.63,-53.8 97.7,-140.6 142.27,-214.3 z m 120.55,-278.698 c 11.65,-11.203 17.77,-28.902 25.29,-45 -17.16,4.598 -38.45,4.2 -51.47,13.7 -76.09,51.199 -144.19,115.199 -223.75,153.898 -92.18,43.6 -95.25,130.2 -132,201.6 -3.69,7.2 -0.23,19.7 -1.03,28.8 9.47,-3.7 20.31,-5.8 28.54,-12.7 59.6,-54.2 117.56,-106.9 183.87,-168.1 56.85,-57.4 115.08,-113.202 170.55,-172.198 z M 2520.67,1117.8 c -9.74,6.7 -19.47,13.5 -29.34,21.8 -23.02,19.2 -43.69,46.4 -70.58,57.7 -148.72,63 -191.79,188.7 -204.59,333.7 -0.8,9.1 1.42,18.4 2.14,27.6 7.95,-3.8 15.9,-7.7 22.62,-14.7 43.16,-40.4 86.31,-80.7 137.69,-128 87.74,-62.3 97.21,-169.6 142.99,-256.9 6.98,-10.1 -0.62,-27.5 -0.93,-41.2 z M 2176.65,1392 c -10.98,3.6 -23.2,4 -31.43,10.9 -26.44,23.6 -51.64,50.3 -78.18,92.1 -63.33,44.7 -103.43,102.1 -107.34,180.9 -1.78,54.7 -3.55,109.4 -3.82,164.2 -1.33,15.1 2,29.1 2.31,42.8 9.87,-8.3 22.76,-16.2 31.24,-26.2 105.7,-127.7 142.37,-284.4 190.73,-435.5 2.31,-8.9 -1.29,-19.9 -3.51,-29.2 z m 395.98,-983.898 c -54.8,103.3 -106,217.597 -187.52,295.699 -129.61,122.5 -288.42,213.601 -483.04,158.398 -23.78,-6.699 -44.99,-25.301 -64.8,-42.297 -46.41,-43.703 -74.14,-40.101 -108.06,16.297 -71.78,123.199 -106.31,255.701 -111.03,395.301 -3.91,130.7 -1.78,261.8 -5.56,391 -0.31,38 -15.74,74.7 -15.91,111.2 1.02,126.5 1.91,254.5 12,381.8 6.13,85.9 29.15,170.1 45.99,255.4 3.21,15.5 15.74,28.8 23.74,41.7 9.87,-8.3 21.24,-16.4 26.84,-28.1 18.58,-38 43.21,-75.4 48.32,-116.1 10,-113.3 2,-229.7 18.05,-342.6 31.07,-196.7 106.14,-374.4 251.88,-524.5 180.81,-185 400.38,-308.8 613.59,-446.902 166.45,-108.597 353.97,-197.199 481.4,-364.097 8.89,-14.5 46.27,-6.602 70.98,-10.5 2.54,23.101 13.74,51.5 3.21,67.301 -55.79,97.097 -120.37,190.398 -173.26,289.3 -67.65,127.998 -128.01,259.798 -191.26,389.698 -126.76,263 -249.26,529.3 -384.69,787 -43.74,81.4 -117.17,154.1 -192.15,209.9 -89.51,65.2 -205.96,73.2 -313.43,48.5 -110.5,-25 -160.45,40.7 -216.72,108.8 -51.07,61 -13.96,123.7 7.33,175.8 105.51,271.3 218.98,538.6 333.96,806.2 37.73,90.1 88.22,173.8 135.56,258.7 9.11,17.5 37.91,53.6 49.06,13.4 21.61,-89.4 38.94,-182.3 36.23,-272.4 -0.75,-77.8 -33.51,-155.3 -51.02,-233 -45.33,-211.1 28.76,-394.9 144.23,-564.4 176.78,-260.1 415.76,-465.9 633.42,-688.9 70.27,-71.4 113.3,-162.1 134.19,-260.7 5.42,-27 15.11,-50.5 21.91,-75.8 8.98,-32.7 24.13,-66.4 60.45,-46.4 18.84,10.8 31.73,54.6 26.58,78.5 -46.01,158.9 -98.06,317.2 -144.19,477.6 -6.81,25.3 7.28,55.5 4.75,84.2 -20.53,181 -27.74,366.1 -66.14,542.4 -50.36,225.6 -124.77,447.4 -269.18,634.2 -58.58,77.1 -137.38,141.7 -217.16,200.1 -40.58,28.4 -102.67,24.5 -154.41,41.2 -21.96,7.2 -50.63,21.5 -59.91,40.4 -58.06,122.8 -21.39,225.1 102.09,327.3 103.51,86.9 201.82,180.8 305.47,266.1 66.76,54.6 140.1,103.7 211.79,154.2 90.53,61.3 106.53,190.7 26.8,265.9 -11.65,11.1 -52.45,7.5 -65.12,-4.2 -50.54,-48.7 -90.94,-108.6 -141.47,-157.2 -161.25,-157.4 -332.24,-308 -486.9,-470.9 -92.14,-95 -156.19,-214.8 -243.39,-313.9 -42.98,-48 -109.43,-88.9 -171.96,-105 -71.34,-20 -147.48,-37.4 -223.97,18.3 -52.09,38 -128.58,41.9 -198.85,61.6 -71.43,-1.7 -141.92,-14 -207.12,0 -133.17,24.8 -249.08,-25 -363.75,-71.7 C 767.141,3609.9 651.98,3534.3 532.598,3472 415.973,3412.9 301.926,3341.9 177.25,3305 119.988,3287.8 60.293,3278.9 0,3272.2 v -145.5 c 90.8086,-0.9 181.438,0.2 272.23,-0.6 131.168,-2.1 263.926,-22.4 393.625,-7.9 180.805,22 358.985,91.1 539.615,97.9 182.02,8.4 315.79,114.7 470.34,175.5 70.8,26 122.35,97.6 185.24,144.3 22.85,17.2 52.54,25.9 80.45,37.5 -9.95,-25.2 -19.91,-50.5 -29.86,-75.7 -60.54,-142.4 -125.87,-282.2 -180.1,-427.1 -62.79,-168.5 -119.15,-341 -172.62,-511.7 -30.62,-101.7 -53.55,-204.2 -76.49,-306.8 -26.84,-127.2 -128.63,-181.9 -225.61,-239.2 -21.73,-12.6 -67.29,3.2 -94.58,19.1 -122.05,71.4 -255.209,96.2 -394.33,102.2 C 543.367,2141.8 358.207,2031.1 174.285,1923.5 115.371,1888.6 57.5703,1851.8 0,1814.6 v -116.4 c 50.5781,31.9 101.66,63.1 148.953,98.2 120.008,89.7 157.918,91.6 270.988,1 10.004,-9.8 15.739,-23 24.36,-34.4 -11.821,-4.1 -23.778,-6.6 -34.09,-10.6 -54.582,-20 -110.672,-40.2 -180.363,-61.6 -11.957,-2.6 -23.91,-5.2 -34.223,-9.1 C 129.977,1660.3 65.4609,1638.1 0,1618.3 v -110.1 c 13.3398,1.8 26.7461,3.5 39.8398,5.9 C 26.25,1497.9 12.7813,1482.6 0,1466.8 v -192.9 c 31.7031,3.6 63.4063,7.2 95.1367,10.6 271.4723,30 534.8203,100.5 776.4723,226.9 139.741,73.2 270.901,174.7 350.551,324.8 10.22,22.3 37.86,36.9 57.56,55.4 48.04,42.3 97.73,83.2 147.29,125.7 8.53,6.8 17.07,13.7 25.6,20.5 4.22,-13.3 12.98,-26.3 12.67,-40 12.89,-215.1 21.11,-429.1 36.9,-642.5 6.75,-93.8 34.67,-185.8 36.89,-280 6.49,-246.101 25.34,-494.198 -1.95,-737.3 C 1523.34,225.301 1491.3,105.699 1430.57,0 h 189.51 c 0.02,0.402344 0.05,0.800781 0.07,1.19922 7.42,157.49978 18,313.80078 17.86,470.60178 0.13,102.101 -16.35,202.699 -25.16,302.398 -1.86,21.203 -5.11,40.703 -3.82,60.602 0.58,10.699 10.35,20.699 15.47,31.801 9.86,-8.301 22.75,-16.301 28.22,-26.403 42.18,-98.398 69.52,-201 91.07,-307.297 C 1779.73,349 1833.79,170.602 1919.36,0 h 101.52 c -1.95,4.5 -3.82,8.5 -5.83,13.1992 C 1983.28,149 1949.99,284.602 1919.72,420.5 c -4.23,13.402 7.91,31.199 12.75,45.301 12.76,-6.5 26.89,-11.301 33.87,-21.301 29.82,-44.598 70.22,-88.301 80.67,-137.602 22.96,-101 38.92,-204.398 53.84,-306.898 h 55.6 c -4.05,32.6016 -7.91,65.3008 -11.79,97.6992 -3.33,37.8008 -0.75,77.6018 -1.07,115.6988 27.25,-32.597 56,-65.097 91.48,-104.699 20.53,-25.5974 36.93,-56.0974 61.73,-78.2967 10.65,-9.8007 20.4,-20 29.75,-30.4023 h 99.44 c -18.6,21.8008 -37.2,43.6992 -56.16,65.8008 -25.6,31.3008 -52.58,60.8982 -78.18,92.1012 40.53,6.598 80.8,16.297 123.11,20 124.19,7.899 172.59,-22.8 222.41,-138.7028 5.41,-13 10.42,-26.0976 15.33,-39.1992 h 109.3 c -6.76,15.6016 -13.45,31.1992 -20.22,46.8008 -51.87,121.8982 -106.77,243.3982 -168.95,361.3012"
         style="fill:#7e967b;fill-opacity:1;fill-rule:nonzero;stroke:none"
         id="path32" />
      <path
         d="M 15000,1618.3 V 1508.2"
         style="fill:none;stroke:#7e967b;stroke-width:7.5;stroke-linecap:round;stroke-linejoin:round;stroke-miterlimit:4;stroke-dasharray:none;stroke-opacity:1"
         id="path34" />
      <path
         d="M 15000,1814.6 V 1698.2"
         style="fill:none;stroke:#7e967b;stroke-width:7.5;stroke-linecap:round;stroke-linejoin:round;stroke-miterlimit:4;stroke-dasharray:none;stroke-opacity:1"
         id="path36" />
      <path
         d="m 14442,1368.5 c -7.4,-2.2 -16.5,-3 -25.6,-3.8 4,6.4 7.5,18.9 13.4,21 128.3,64.6 256.5,130.7 388.3,191.1 23.5,9.7 59.8,-5.4 90.6,-8.8 -24.5,-15.8 -50.4,-33.4 -81.8,-57.4 -128.2,-47.9 -256.6,-94.3 -384.9,-142.1 z m 549.6,88.1 c -95.9,-138 -248.9,-113.4 -385.2,-139.1 -10.6,-0.9 -25.4,11.5 -38.1,17.9 11.4,8.7 21,20.2 34.2,25.9 91.7,30.9 183.4,61.9 282,101 20.2,12.5 38.7,27.8 60.9,34.4 17.3,5.9 35.9,8.9 54.6,11.5 v 110.1 c -11.3,-3.4 -22.6,-6.9 -33.9,-10.2 -15,-2.8 -36.7,18.1 -55.9,28.6 14.5,8.9 27.1,20.7 40.1,29.4 16.4,10.9 33,21.5 49.7,32.1 v 116.4 c -113.5,-73.4 -225.9,-149.1 -341.9,-220 -200.9,-122.8 -413.1,-220.7 -656.3,-225.4 -12.1,-1.1 -27.6,2.1 -37.6,-4.8 -17.4,-10.7 -39,-24.8 -46.6,-42.2 -4,-6.5 18.6,-38 32.6,-41.3 51.3,-12.2 102.4,-21.4 154.3,-22.9 148.2,-5.2 298.5,0.4 445.5,-9.5 151.6,-9.2 300.8,8.3 450,25.4 v 192.9 c -2.8,-3.4 -5.7,-6.8 -8.4,-10.2"
         style="fill:#7e967b;fill-opacity:1;fill-rule:nonzero;stroke:none"
         id="path38" />
      <path
         d="m 14722,3217.7 c 18.9,-24.3 33.1,-64.1 58,-71.1 51.6,-15.2 108.1,-16.3 163.2,-19.1 18.9,-0.4 37.9,-0.6 56.8,-0.8 v 145.5 c -67.8,-7.5 -136.4,-12.1 -203.2,-22.1 -27.1,-3.9 -49.9,-21.1 -74.8,-32.4"
         style="fill:#7e967b;fill-opacity:1;fill-rule:nonzero;stroke:none"
         id="path40" />
      <path
         d="m 15000,11867.4 v -172.5"
         style="fill:none;stroke:#7e967b;stroke-width:7.5;stroke-linecap:round;stroke-linejoin:round;stroke-miterlimit:4;stroke-dasharray:none;stroke-opacity:1"
         id="path42" />
      <path
         d="M 15000,11388.5 V 11274"
         style="fill:none;stroke:#7e967b;stroke-width:7.5;stroke-linecap:round;stroke-linejoin:round;stroke-miterlimit:4;stroke-dasharray:none;stroke-opacity:1"
         id="path44" />
      <path
         d="m 15000,14189.4 v -82.6"
         style="fill:none;stroke:#7e967b;stroke-width:7.5;stroke-linecap:round;stroke-linejoin:round;stroke-miterlimit:4;stroke-dasharray:none;stroke-opacity:1"
         id="path46" />
      <path
         d="m 15000,14062.8 v -149.4"
         style="fill:none;stroke:#7e967b;stroke-width:7.5;stroke-linecap:round;stroke-linejoin:round;stroke-miterlimit:4;stroke-dasharray:none;stroke-opacity:1"
         id="path48" />
      <path
         d="m 14726.3,14130.5 c 9.3,-2.3 15.2,-17 23.6,-25.4 -8.6,-6.8 -17.1,-13.7 -25.9,-17.5 -60.6,-20.6 -121.3,-41.2 -180.4,-61.6 -35.4,-12.3 -70.5,-29.1 -106.2,-38.3 -22.3,-6.5 -48.7,-1.3 -73.1,-0.4 15.3,16.6 25.5,38.8 44.2,51.1 57.4,40.1 118.2,76 192.5,114.5 41.7,-7 83.3,-12.4 125.3,-22.4 z m -372,-29.8 c -87.9,-91.5 -210.2,-120.6 -319.7,-174.4 -16.1,-7.5 -28.1,-26.9 -42,-41.8 19.9,-18.1 41.2,-52.7 59.4,-51.1 95.3,6.9 190.9,27.5 286.2,35.9 63.3,7.1 127.8,0.6 191.6,3.2 89.3,6.3 178.3,15.7 267.4,23.6 67.6,6 135.2,11.6 202.8,17.3 v 149.4 c -26.8,-25.4 -52.7,-55 -84.1,-61.8 -76.3,-15.9 -155.4,-16.8 -232.4,-23.6 -13.6,-1.2 -29.2,2 -42.9,2.3 12.9,8.8 24,22 38.7,27.8 96.3,29.8 194.3,58.3 299.2,95 7.2,1.4 14.3,2.8 21.5,4.3 v 82.6 c -99,-29.9 -199.8,-39 -306.3,17.4 -15.9,7.7 -30.5,17.1 -46.5,26.3 4.1,5 6.6,11.3 10.7,16.2 56.3,52.2 112.4,107.4 170.5,156.7 36.9,30.6 72.3,77.9 131.4,46.6 13.6,-7 26.9,-14.7 40.2,-22.6 v 91.6 c -5,2.6 -10,5.3 -15,7.9 -36.6,18 -27.7,20.4 -1.8,37.9 5.6,4.1 11.2,8.3 16.8,12.5 v 135.9 c -183.2,-165.3 -363.2,-335.1 -544.3,-504.1 -36.7,-33.7 -66.6,-74.4 -101.4,-111"
         style="fill:#7e967b;fill-opacity:1;fill-rule:nonzero;stroke:none"
         id="path50" />
      <path
         d="m 14287.6,10991 c -10.4,-3.9 -24.2,-2.1 -34.8,-3.1 5.2,9.7 10.5,19.3 15.7,28.9 125.7,198.4 256,395.7 305.2,631.5 4.2,21.7 39.9,49.2 63.8,54.4 70.3,13.8 143,18.7 222.2,36.3 17.8,4.6 37.1,10.9 54.9,15.5 13.5,2.7 27.4,0.9 41,2.1 -5,-12.6 -6.7,-28 -16.5,-38 -47.1,-52.9 -97.4,-104.5 -144.5,-157.4 -157.6,-181.4 -315,-364.4 -472.6,-545.8 -8.2,-11.4 -21.1,-20.2 -34.4,-24.4 z m 646.4,354 c -152.6,-100.2 -306.9,-197.6 -461.4,-293.5 -15.8,-10.5 -40.4,-8.1 -61.6,-10 15.3,16.6 27.3,35.9 44.1,52.6 63.4,58.9 133.3,112.3 191.7,175.3 112.1,127.2 217.8,258.4 333.5,396.5 6.5,9.6 13.2,19.4 19.7,29 v 172.5 c -4.5,-3.6 -8.9,-7.2 -13.7,-10.6 -110.3,-61.5 -233.1,-67.8 -354.2,-75.4 -4.6,-0.4 -15.1,15.4 -12.6,21.7 43.3,130.2 89.7,260.7 130,390.7 14.4,43.9 37.5,58.1 79.9,60.4 56.6,4.2 113.6,9 170.6,14 v 74.8 c -55.4,1.4 -111.8,5.4 -171.7,10 44.6,81.6 90.8,161.9 133.9,243.3 10.2,20.2 23.1,34 37.8,43.4 v 113.6 c -46.5,-49.5 -89.9,-101.8 -129.3,-155.9 -93.7,-128.6 -174,-271.2 -238.8,-417 -77.3,-177.4 -141.8,-361.3 -193.9,-547.1 -57.2,-197 -133.8,-381.9 -253.5,-544.8 -44.9,-60.3 -124.2,-93.2 -183.8,-142.6 -19.9,-17 -32.8,-42.5 -47.7,-63.6 17.9,-13.6 36,-28.8 55.3,-40.8 51.2,-27.5 101.5,-27.6 157.2,-2.9 147.8,67.9 299.8,122.4 444.2,194.6 131.1,67.9 256.7,146 377.1,231.2 4.4,3.2 8.8,6.4 13.2,9.6 v 114.5 c -21.8,-14.7 -43.7,-29.2 -66,-43.5"
         style="fill:#7e967b;fill-opacity:1;fill-rule:nonzero;stroke:none"
         id="path52" />
      <path
         d="m 7351.93,62.9023 c 24.05,80.0977 26.22,168.4997 36.01,251.3987 1.27,16 -16.66,33.5 -23.26,51.699 -13.8,-11.801 -32.28,-21.602 -39.94,-37.098 C 7289.82,233.5 7251.7,138.398 7221.46,41 7217.38,27.1016 7212.75,13.6992 7208.37,0 h 123.26 c 6.84,20.8984 13.93,41.8008 20.3,62.9023"
         style="fill:#efd5cb;fill-opacity:1;fill-rule:nonzero;stroke:none"
         id="path54" />
      <path
         d="m 7899.42,169.102 c 45.74,89.8 46.9,165.296 -16.68,236.3 -56.2,62.399 -111.38,36.2 -160.92,-0.101 -75.18,-55.199 -124.06,-123.699 -98.46,-227.199 12.19,-49.2 48.19,-122.8012 26.97,-146.9028 C 7641.82,20.6016 7632.84,10.5 7624.22,0 h 130.43 c 46.73,55.1016 94.73,110.898 144.77,169.102"
         style="fill:#efd5cb;fill-opacity:1;fill-rule:nonzero;stroke:none"
         id="path56" />
      <path
         d="m 8503.54,177.602 c -64.98,-7.7 -115.7,-18.204 -163.21,-28.903 28.88,39.5 62.43,77.102 89.85,118.403 140.54,230.199 276.41,462.398 350.35,725.3 25.07,92.998 72.27,180.998 119.22,265.698 15.07,27.8 56.44,42.2 91.17,54 6.65,2.7 34.12,-36.5 40.47,-57.9 48.3,-182.5 93.4,-364.7 141.7,-547.098 31.48,-110.403 -18.16,-188.5 -101.97,-251 -44.62,-35.102 -92.43,-70 -144.16,-93.2 -138.69,-64.703 -281.79,-124.101 -423.42,-185.3 z M 9410.79,71.8984 c -167.23,42.2036 -338.66,71.9026 -509.6,108.0036 -18.93,4.7 -39.6,7.899 -58.53,12.7 14.06,14.898 28.63,36.3 47.11,46.097 97.31,50.203 197.31,93.801 294.62,144 139.45,74.301 290.94,36.5 436.89,50.699 368.2,36.801 734.82,12.5 1100.52,-42.199 47.8,-7 98.7,6.703 146.5,20.602 13.3,5.398 21.3,45 23,67.398 -0.9,8.102 -25.2,26.102 -38,27.102 -359.8,9.199 -712.1,132.097 -1075.68,72.398 -26.09,-4.398 -55.84,6 -82.9,9.801 20.96,20.801 40.46,43.398 62.89,62.602 6.9,5.898 22.64,1.398 31.02,5.597 183.51,82 366.77,160.801 545.87,248 85.2,39.903 159.3,61.403 255,29.602 111.4,-36.102 157.3,56.801 188.3,142.799 39.1,108 3.2,223.4 -75.7,263.5 -91.1,47.4 -200.5,-13.1 -235.5,-129.4 -17.1,-53.3 -27.4,-121.7 -65.1,-150.9 -68.7,-55.7 -153.5,-89.198 -233.8,-127.898 -147.6,-75.203 -296.34,-145.504 -443.9,-220.703 -120.72,-61.297 -238.49,-125.898 -358.96,-184 -33.49,-16.597 -75.07,-13.301 -110.76,-16.898 18.27,27.5 36.8,58.199 56.8,87.199 5.68,10.801 17.25,14.699 24.41,23.801 125.07,136.5 245.47,275 286.27,464.899 15.68,76 66.18,104.2 141.77,123.9 49.25,12.2 107.42,55.9 130.41,102.3 34.87,74.5 7.5,155.5 -68.71,188.9 -57.52,25.5 -136.01,30.1 -198.29,15.7 -34.47,-8.5 -82.64,-88.4 -72.13,-118.2 69.47,-179.3 -64.18,-302.2 -112.74,-447.999 -21.07,-62.699 -64.01,-117.301 -99.08,-174 -5.69,-10.801 -23.41,-11 -35.23,-18.102 -0.71,11.301 0.05,20.903 1.06,33.703 19.16,201.2 -60.91,368.498 -178.66,527.498 -21.83,29 -11.12,82.9 -14.23,125 -1.83,58.1 14.56,122.7 -9.21,168.1 -37.72,72.2 -175.76,76.7 -262.51,17.6 -78.12,-51.8 -110.76,-118.4 -73.07,-211.5 17.36,-44.8 40.11,-102.9 25.75,-142 -73.28,-193.8 -155.91,-383.498 -235.33,-573.6 -19.8,-46.699 -44.26,-91.398 -67.26,-137.801 -10.46,50.699 -20.93,101.403 -28.19,151.801 -24.89,193.5 -94.37,372.8 -188.71,542.8 -13.96,26.9 -56.76,35.1 -87.73,50.4 -6.95,-26.8 -25.48,-57.5 -19.38,-82.1 46.01,-211.3 80.21,-429.6 147.65,-634.498 C 8374.92,422.699 8348.03,286.5 8218.85,179.199 8137.4,112 8047.25,56.8008 7957.69,0 h 236.18 c 31.3,17.6016 62.55,35.4023 93.83,53.1016 11.83,7.0976 24.87,9.3007 39.39,9.6992 34.22,5.3984 69.65,5.8008 103.61,7.8984 C 8416.48,47.1016 8405.76,21.5 8390.56,0 h 153.63 c 33.99,22 75.79,44.5 99.28,34.6016 C 8683.13,19.9023 8723.08,8.80078 8763.21,0 h 728.45 c -25.52,28 -48.89,65.1016 -80.87,71.8984"
         style="fill:#efd5cb;fill-opacity:1;fill-rule:nonzero;stroke:none"
         id="path58" />
      <path
         d="m 14625.6,7780.55 c -30,-34.08 -70.2,-59.17 -106.7,-90.47 -135.3,-95.52 -250.3,-181.71 -377.7,-251 -85.2,-48.9 -186.2,-77.92 -280.7,-109.72 -17.2,-5.94 -40.7,8.62 -58.8,15.49 13.5,15.34 23.3,36.87 38.9,44.3 254.9,111.27 470.6,281.11 688,449.45 10.7,8.72 23.3,12.75 37.6,15.28 33.1,10.17 68.1,15.65 101.4,22.62 -13.9,-33.05 -21.3,-68.89 -42,-95.95 z m 98.8,212.14 c -63.2,-16.94 -111.9,-34.55 -157.4,-51.95 22.9,43.27 50.8,85.26 72,130.03 106.2,247.97 207.5,497.23 243,767.98 11.6,95.58 45.7,189.41 80,280.03 6.1,16.34 20.7,29.74 38,41.31 v 381.42 c -51.1,-3.57 -106.7,-25.17 -146.4,-61.61 -70,-62.38 -92.7,-132.97 -42.1,-219.72 23.6,-41.88 54.4,-96.16 45.8,-136.9 -44.9,-202.22 -99.5,-401.86 -151,-601.29 -12.9,-49.06 -30.7,-96.82 -46.8,-146.08 -17.6,48.69 -35.2,97.39 -49.6,146.29 -52.3,187.92 -146.7,355.45 -264.4,510.21 -17.6,24.58 -61.2,26.6 -94,37.34 -3.1,-27.52 -17,-60.57 -7.5,-84.07 75.8,-202.48 140.8,-413.69 236.9,-606.83 81.2,-161.94 74,-300.64 -38.5,-425.25 -96.1,-105.86 -211.1,-192.04 -317.3,-288.91 -54.8,-48.54 -102.7,-103.07 -157.4,-151.61 -15.2,-13.83 -40.8,-15.49 -61.3,-21.63 0.4,17.72 -7.4,39.71 -0.1,51.43 69.6,117.02 142.6,231.04 221.4,355.07 32.4,95.32 22.8,170.25 -50.3,231.45 -64.5,53.71 -115.4,19.89 -159.2,-23.13 -66.6,-65.37 -105.1,-140.2 -65,-238.88 19.1,-46.99 65.3,-114.75 47.7,-141.6 -100,-168.81 -213.5,-328.84 -327,-488.86 -11.7,-16.83 -43.7,-18.9 -67.2,-28.45 1.9,19.42 2.2,40.33 7.3,59.95 29,149.75 64.5,296.72 87,446.06 12.4,82.78 1.9,170.51 -0.3,253.97 -1,16 -21.2,30.77 -30.4,47.87 -12,-13.63 -28.9,-25.98 -34.2,-42.39 -20.9,-99.41 -45.1,-199.02 -61.1,-299.72 -62,-434.81 -276.5,-771.75 -636.3,-1026.42 -113.7,-81.28 -206.1,-193.33 -307.3,-294.69 -12,-13.64 -12,-37.76 -18.9,-55.88 25.8,-1.55 63.8,-16.79 77.5,-4.65 161.8,132.61 322,266.71 478.7,403.81 149.2,128.57 286.5,267.63 437.7,391.51 149.7,122.18 304.6,112.87 398.4,-20.93 140,-201.55 366.1,-243.24 571.9,-318.38 21.3,-6.67 55.1,18.02 85,27.98 -15.8,19.89 -28.5,43.18 -48.8,57.95 -101.6,80.25 -201.7,162.21 -306.3,239.04 -65.9,48.81 -139.2,89.1 -208,134.49 -22,16.27 -42.6,37.44 -63.1,55.41 28.4,8.26 60.9,28.03 88.4,24.99 220.6,-30.78 444.2,-58.17 662.7,-105.17 87.9,-16.83 186.2,-45.86 226.9,-154.15 20.5,-53.06 50.7,-87.07 86.5,-105.67 v 275.68 c -36.8,9.07 -73.3,17.29 -109.1,31.07 -49.2,16.12 -96.3,48.45 -146.7,56.46 -131.4,18.85 -263.7,26.4 -396.4,40.34 -21.1,3.46 -42.7,13.32 -64,19.99 8.8,13.43 13.9,33.05 25,35.37 122,25.89 181.3,128.16 256.9,209.52 10.5,-4.75 21.5,-8.56 33.1,-10.1 124.8,-16.1 252.5,-19.7 376.9,-43.97 8.1,-1.45 16.1,-2.63 24.3,-3.64 v 110.2 c -117.3,16.72 -239.1,13.62 -359,14.83 50.1,42.25 85.5,101.6 132.3,148.55 31.9,29.38 80.6,71.11 110,63.36 39.1,-8.35 78,-13.46 116.7,-16.54 v 307.43 c -91.2,-57.05 -183.8,-112.86 -275.6,-169.32"
         style="fill:#efd5cb;fill-opacity:1;fill-rule:nonzero;stroke:none"
         id="path60" />
    </g>
  </g>
</svg>
